{"glyphs":{"a":{"ha":1089,"x_min":0,"x_max":0,"o":"m 1061 13 l 1019 171 l 964 263 b 963 264 964 263 964 263 l 917 347 l 917 349 l 832 532 b 832 533 832 533 833 533 b 832 535 833 533 832 535 l 796 618 l 776 749 b 775 750 776 749 776 750 l 721 814 l 711 953 l 711 954 b 710 954 711 954 710 954 l 635 936 l 553 954 b 551 954 553 954 551 954 l 478 944 l 394 964 l 393 964 b 392 964 393 964 392 964 l 392 963 l 354 758 l 299 665 b 299 663 297 664 299 664 l 261 525 l 188 414 b 186 413 186 414 186 413 l 149 282 l 67 153 b 65 151 65 153 65 153 l 28 14 b 28 11 28 11 28 11 b 28 10 28 11 28 10 b 29 10 29 10 29 10 l 31 10 l 104 14 l 186 10 l 188 10 b 189 10 189 10 189 10 l 272 19 l 274 19 l 300 28 b 301 29 300 29 301 29 l 367 168 l 476 178 l 588 168 b 589 168 588 168 589 168 l 718 178 l 746 114 b 746 113 746 114 746 113 l 764 11 b 765 10 764 10 765 10 l 839 10 b 840 10 839 10 840 10 l 915 19 l 1003 0 l 1004 0 l 1060 10 b 1061 10 1060 10 1061 10 b 1061 11 1061 11 1061 11 z m 474 942 l 446 788 l 439 750 l 394 960 z m 357 758 l 393 954 l 396 942 l 436 742 l 383 753 z m 549 951 l 444 751 l 468 883 l 478 942 z m 632 933 l 579 783 l 561 894 l 553 950 z m 706 950 l 586 788 l 603 833 l 638 933 z m 708 947 l 718 814 l 685 804 l 585 779 l 646 863 z m 561 881 l 578 778 l 539 765 l 517 760 l 551 943 z m 513 758 l 494 754 l 443 742 l 546 940 z m 583 775 l 715 810 l 654 722 z m 718 808 l 718 658 l 656 721 z m 721 808 l 774 747 l 721 660 z m 557 768 l 576 774 l 551 651 l 517 756 z m 582 772 l 651 719 l 628 632 l 608 561 z m 592 663 l 604 560 l 553 646 l 564 699 l 579 765 z m 411 743 l 438 738 l 414 668 l 393 604 l 390 614 l 358 756 z m 397 608 l 442 738 l 508 754 z m 356 753 l 372 678 l 390 603 l 301 664 z m 532 699 l 550 646 l 499 624 l 489 619 l 507 718 l 514 751 z m 397 601 l 511 750 l 485 619 l 425 607 z m 768 668 l 764 594 l 758 603 l 721 656 l 772 742 z m 776 732 l 792 618 l 768 593 l 769 622 z m 717 654 l 688 565 l 674 524 l 663 643 l 656 715 z m 640 663 l 653 710 l 665 582 l 671 518 l 661 524 l 610 553 z m 310 593 l 301 660 l 360 619 l 389 599 l 319 528 z m 264 525 l 299 656 l 314 543 l 317 525 z m 764 589 l 742 571 l 676 519 l 706 607 l 719 651 z m 536 636 l 549 642 l 506 504 l 488 617 z m 606 551 l 653 376 l 543 358 l 442 376 l 504 493 l 506 494 l 507 496 l 551 642 z m 439 606 l 482 615 l 439 538 l 396 597 z m 793 614 l 826 540 l 768 589 z m 442 533 l 467 579 l 485 613 l 496 544 l 501 499 z m 392 594 l 396 514 l 400 435 l 321 524 z m 394 593 l 438 533 l 403 442 z m 810 550 l 829 533 l 803 367 l 797 401 l 769 585 z m 674 513 l 760 582 l 672 413 l 657 383 z m 747 550 l 763 581 l 736 394 l 658 378 z m 779 497 l 800 360 l 740 394 l 753 489 l 765 574 z m 613 547 l 621 542 l 669 514 l 660 501 l 650 489 z m 647 486 l 651 390 l 611 543 z m 406 435 l 440 531 l 501 496 z m 913 349 l 806 358 l 832 528 z m 317 522 l 314 506 l 299 421 l 282 471 l 265 522 z m 261 518 l 261 360 l 214 394 l 190 413 z m 318 517 l 340 435 l 361 353 l 301 414 z m 324 515 l 396 436 l 400 431 l 367 351 l 356 390 z m 264 361 l 264 514 l 282 463 l 299 413 z m 664 460 l 654 397 l 651 486 l 669 508 z m 500 490 l 440 378 l 406 431 z m 403 428 l 413 413 l 436 375 l 368 350 z m 210 253 l 190 408 l 261 356 l 217 199 z m 299 407 l 325 296 l 264 357 z m 306 392 l 303 407 l 363 347 l 328 296 z m 153 282 l 188 403 l 213 196 z m 725 307 l 658 374 l 710 386 l 736 392 l 754 344 l 789 243 z m 792 246 l 740 390 l 801 356 z m 540 356 l 531 303 l 446 372 z m 540 342 l 543 354 l 646 372 l 535 304 z m 439 372 l 474 260 l 369 346 z m 538 301 l 651 372 l 643 265 z m 789 238 l 646 265 l 649 290 l 656 371 z m 531 300 l 478 257 l 443 369 z m 804 354 l 911 346 l 796 239 l 801 325 z m 282 161 l 264 351 l 325 290 z m 261 346 l 274 203 l 278 154 l 218 189 z m 331 292 l 347 318 l 365 344 l 469 257 z m 797 236 l 913 342 l 904 236 z m 940 246 l 907 238 l 915 336 z m 921 333 l 960 264 l 944 247 z m 533 299 l 639 263 l 490 219 z m 485 228 l 479 253 l 526 292 l 514 268 l 486 221 z m 331 275 l 363 171 l 322 161 l 283 153 l 328 286 z m 472 181 l 367 171 l 331 286 z m 483 219 l 349 283 l 475 253 z m 347 279 l 442 236 l 485 215 l 476 182 z m 71 154 l 149 276 l 149 171 z m 153 275 l 213 189 l 175 178 l 153 172 z m 719 182 l 650 260 l 790 233 z m 714 182 l 610 208 l 626 233 l 644 260 z m 1010 181 l 946 244 l 961 260 z m 640 260 l 606 208 l 496 217 z m 942 242 l 942 158 l 908 233 z m 1015 169 l 981 136 l 969 171 l 947 238 z m 978 136 l 944 153 l 944 235 z m 797 233 l 899 233 l 832 200 z m 758 140 l 794 232 l 829 197 l 751 121 z m 833 197 l 903 232 l 885 129 z m 747 118 l 721 178 l 789 229 l 756 140 z m 890 126 l 897 171 l 907 229 l 917 207 l 940 151 z m 524 190 l 479 181 l 488 215 l 594 207 z m 592 172 l 608 206 l 708 181 z m 488 179 l 604 204 l 588 171 z m 822 146 l 831 193 l 867 147 l 883 124 l 814 99 z m 792 103 l 751 115 l 790 154 l 828 192 l 815 117 l 811 97 z m 188 19 l 172 85 l 153 168 l 213 186 z m 278 133 l 271 29 l 219 183 l 279 150 z m 269 22 l 190 13 l 210 133 l 217 179 l 251 75 z m 274 28 l 283 150 l 360 167 z m 1017 167 l 1056 21 l 982 132 z m 33 19 l 68 150 l 144 167 z m 146 22 l 107 32 l 151 163 l 186 14 z m 71 63 l 144 160 l 125 100 l 103 32 l 33 14 z m 900 81 l 889 122 l 940 149 l 915 28 z m 932 93 l 944 149 l 978 132 l 919 32 z m 353 146 l 299 32 l 276 24 l 322 99 z m 918 22 l 979 128 l 992 54 l 1001 4 z m 1057 13 l 1006 4 l 983 125 z m 863 68 l 840 17 l 814 94 l 865 114 l 885 121 z m 913 22 l 843 14 l 850 32 l 886 117 l 890 103 z m 767 17 l 749 111 l 788 100 l 810 94 l 785 49 z m 838 13 l 768 13 l 813 92 l 821 65 z m 168 14 l 104 18 l 47 14 l 104 28 z "},"b":{"ha":954,"x_min":0,"x_max":0,"o":"m 913 189 b 911 190 913 189 911 190 l 907 351 l 907 353 l 842 436 l 840 438 l 744 496 l 814 546 l 869 663 l 869 738 b 869 740 869 739 869 739 l 838 846 b 836 847 838 847 836 847 l 744 906 b 743 908 744 907 743 907 l 663 933 l 519 940 b 517 940 518 940 518 940 l 421 936 l 324 950 l 244 931 l 136 950 l 61 931 b 60 929 61 931 60 931 l 51 772 l 51 771 b 51 769 51 771 51 769 l 79 714 l 42 549 b 42 547 42 549 42 547 l 79 369 l 60 258 l 61 176 b 61 174 61 175 60 175 l 69 108 l 60 17 b 61 14 60 15 61 15 l 63 14 l 164 24 l 210 6 b 211 6 211 6 211 6 l 328 14 l 463 28 l 593 0 l 715 19 l 781 51 l 846 85 l 911 188 b 913 189 913 188 913 188 z m 54 779 l 64 928 l 133 946 z m 140 946 l 239 929 l 179 894 z m 333 942 l 382 921 l 371 917 l 325 904 l 325 946 z m 163 819 l 321 944 l 321 903 z m 338 944 l 414 933 l 388 922 z m 315 944 l 158 821 l 244 928 z m 139 942 l 154 922 l 176 892 l 147 815 z m 56 774 l 135 942 l 143 832 l 144 810 z m 521 938 l 650 931 l 539 903 l 526 926 z m 431 933 l 517 938 l 535 904 z m 393 919 l 421 932 l 447 889 z m 499 911 l 531 901 l 454 885 l 426 931 z m 714 893 l 669 782 l 669 779 l 664 892 l 663 929 z m 651 928 l 621 908 l 561 872 l 540 900 z m 671 928 l 738 906 l 717 896 z m 644 919 l 654 925 l 544 768 l 563 868 z m 231 919 l 238 924 l 151 818 l 156 831 l 181 890 z m 657 922 l 631 813 l 601 700 l 594 707 l 544 763 z m 665 789 l 667 772 l 606 703 l 660 921 z m 346 906 l 385 917 l 333 735 l 326 879 l 325 900 z m 438 807 l 425 747 l 417 789 l 392 917 l 451 882 z m 353 789 l 388 911 l 424 740 l 335 726 z m 819 854 l 721 893 l 731 899 l 742 904 z m 533 899 l 429 747 l 440 806 l 456 882 z m 318 897 l 224 607 l 221 599 l 211 625 l 147 807 z m 558 868 l 543 778 l 540 867 l 539 896 z m 539 779 l 540 763 l 515 747 l 485 729 l 536 892 z m 682 804 l 717 890 l 831 846 l 671 774 z m 331 725 l 225 601 l 321 890 z m 506 806 l 479 726 l 428 739 l 456 779 l 531 889 z m 835 840 l 865 740 l 769 717 l 801 778 z m 765 715 l 701 758 l 832 840 z m 811 832 l 697 760 l 672 771 z m 54 771 l 92 785 l 140 804 l 81 718 z m 83 715 l 144 803 l 144 654 z m 147 651 l 147 799 l 217 599 z m 696 757 l 665 651 l 668 749 l 669 768 z m 663 639 l 618 656 l 665 761 z m 604 696 l 661 761 l 617 658 z m 540 758 l 540 731 l 488 726 l 522 747 z m 543 731 l 543 757 l 594 703 z m 700 753 l 754 656 l 667 639 z m 732 733 l 763 713 l 754 661 l 703 753 z m 333 722 l 426 736 l 481 722 l 542 728 l 601 694 l 615 656 l 578 586 l 508 563 l 418 563 l 417 563 l 329 572 z m 792 718 l 867 736 l 867 667 l 771 713 z m 331 719 l 326 572 l 224 594 z m 863 665 l 758 657 l 764 693 l 767 711 z m 83 710 l 144 649 l 110 521 z m 44 549 l 81 706 l 107 513 z m 740 563 l 758 653 l 861 661 z m 863 658 l 811 549 l 793 551 l 742 558 z m 731 629 l 639 528 l 665 635 l 751 651 z m 639 643 l 661 635 l 646 572 l 636 529 l 622 621 l 618 651 z m 615 650 l 622 596 l 632 526 l 613 549 l 581 586 z m 740 576 l 736 558 l 642 524 l 693 581 l 753 647 z m 147 647 l 218 594 l 111 514 z m 274 581 l 322 569 l 268 531 l 240 569 l 225 590 z m 222 589 l 265 528 l 242 421 l 231 369 z m 110 508 l 199 575 l 214 588 l 85 381 z m 215 361 l 167 390 l 219 583 l 226 400 l 228 354 z m 558 496 l 513 561 l 578 582 l 586 456 z m 136 385 l 85 374 l 215 581 l 163 390 z m 590 454 l 586 508 l 581 579 l 601 556 l 632 519 z m 328 568 l 397 472 l 271 529 z m 414 560 l 400 474 l 382 499 l 332 568 z m 582 456 l 422 560 l 508 560 z m 461 481 l 511 392 l 404 469 l 417 556 z m 740 499 l 642 519 l 736 554 l 738 526 z m 808 546 l 744 499 l 742 526 l 739 554 z m 560 388 l 426 553 l 586 449 z m 46 544 l 107 510 l 81 378 z m 557 386 l 519 386 l 465 478 l 429 542 z m 340 494 l 400 468 l 394 461 l 333 393 l 271 525 z m 246 422 l 267 522 l 329 390 l 232 354 z m 740 494 l 656 347 l 644 449 l 638 517 z m 644 415 l 651 350 l 590 449 l 619 494 l 633 514 z m 788 436 l 808 410 l 740 400 l 744 492 z m 750 490 l 838 435 l 813 410 l 803 424 z m 736 399 l 696 372 l 658 347 l 739 488 z m 360 399 l 338 392 l 385 447 l 401 465 l 406 451 l 418 418 z m 508 389 l 422 418 l 407 458 l 406 464 z m 594 385 l 590 442 l 649 347 z m 564 386 l 588 442 l 592 396 l 592 386 z m 840 433 l 897 358 l 872 372 l 815 408 z m 421 415 l 508 386 l 342 390 z m 740 397 l 810 406 l 793 361 l 775 318 l 769 331 z m 865 289 l 778 315 l 813 403 z m 903 351 l 868 290 l 850 328 l 817 401 z m 710 376 l 733 393 l 700 326 l 686 331 l 658 343 z m 736 392 l 736 188 l 703 324 z m 751 229 l 739 186 l 739 390 l 774 314 z m 426 218 b 425 218 426 218 426 218 l 424 218 l 333 214 l 333 388 l 518 382 l 593 382 l 653 340 l 653 264 l 603 228 l 528 208 z m 83 369 l 163 388 l 168 357 l 189 238 z m 167 386 l 226 351 l 192 239 z m 197 239 l 232 350 l 325 385 l 261 311 z m 235 213 l 194 231 l 328 381 l 306 303 l 275 196 z m 296 201 l 279 196 l 331 378 l 331 214 z m 64 260 l 82 367 l 189 233 z m 904 346 l 908 197 l 886 247 l 869 286 z m 676 331 l 697 322 l 669 286 l 656 268 l 656 339 z m 699 217 l 656 264 l 699 319 l 733 181 z m 854 276 l 740 179 l 747 207 l 776 313 l 864 286 z m 878 260 l 907 190 l 825 190 l 856 254 l 868 282 z m 846 243 l 821 190 l 744 178 l 813 236 l 863 279 z m 606 226 l 654 261 l 729 179 z m 64 257 l 114 246 l 186 229 l 64 178 z m 199 226 l 274 192 l 265 151 z m 64 174 l 185 225 l 72 113 z m 213 14 l 201 131 l 194 225 l 264 146 z m 97 104 l 75 110 l 121 157 l 157 192 l 188 224 l 135 93 z m 735 174 l 632 107 l 624 146 l 606 222 l 669 199 z m 521 146 l 526 190 l 529 206 l 597 222 z m 522 143 l 601 222 l 628 107 z m 396 182 l 369 150 l 351 179 l 335 210 l 421 215 z m 514 143 l 374 149 l 396 176 l 426 214 z m 496 161 l 432 214 l 526 206 l 518 144 z m 157 49 l 139 90 l 168 164 l 188 214 l 164 33 z m 167 26 l 192 211 l 210 10 z m 365 151 l 322 171 l 281 193 l 332 210 l 351 174 z m 269 149 l 274 169 l 278 190 l 361 149 z m 825 171 l 824 188 l 906 188 l 832 122 z m 740 172 l 786 181 l 818 186 l 744 86 z m 776 67 l 779 72 l 821 181 l 829 119 z m 843 126 l 903 179 l 846 89 l 833 118 z m 744 82 l 763 106 l 814 175 l 811 169 l 769 61 z m 699 92 l 636 106 l 736 172 l 739 128 l 740 83 z m 268 144 l 364 144 l 215 14 z m 417 61 l 372 144 l 514 140 z m 331 19 l 369 142 l 414 58 z m 215 8 l 365 142 l 347 85 l 326 18 z m 519 140 l 625 104 l 422 61 z m 785 58 l 794 69 l 831 115 l 842 86 z m 64 21 l 72 107 l 133 90 z m 592 50 l 431 58 l 626 101 l 614 82 z m 596 50 l 613 75 l 631 101 l 710 24 z m 714 22 l 636 101 l 678 88 l 765 57 z m 797 78 l 779 56 l 774 58 l 813 99 z m 657 97 l 742 79 l 763 63 z m 67 18 l 136 88 l 163 26 z m 458 31 l 338 18 l 417 56 z m 776 53 l 738 33 l 771 56 z m 424 56 l 574 47 l 464 32 z m 472 29 l 592 47 l 592 4 z m 706 21 l 594 4 l 594 47 z "},"c":{"ha":990,"x_min":0,"x_max":0,"o":"m 933 764 l 875 818 l 879 840 b 878 843 879 842 879 842 l 743 922 l 603 954 l 511 958 l 451 949 l 361 944 b 360 944 360 946 360 944 b 358 944 360 944 358 944 l 358 943 l 294 889 l 293 888 l 144 782 l 144 781 l 75 628 l 75 626 l 56 557 l 58 363 l 88 271 b 88 269 86 271 86 269 b 88 268 86 269 88 268 l 153 135 b 153 132 153 133 153 132 l 154 131 l 214 100 l 233 58 b 233 57 232 57 233 57 l 417 -4 l 583 -14 l 672 -8 l 674 -8 l 713 10 l 813 61 l 814 61 l 933 196 b 935 197 935 196 935 197 l 865 297 l 864 297 l 749 338 b 747 339 747 339 747 339 l 681 260 l 569 222 l 463 242 l 381 278 l 357 347 l 313 454 l 347 628 l 413 676 l 489 714 l 490 714 l 561 728 l 694 667 l 696 667 l 742 617 b 742 615 742 615 742 615 l 743 615 l 785 649 b 786 650 786 649 786 649 l 856 686 l 879 718 l 935 760 l 935 761 b 935 763 935 761 935 763 z m 515 954 l 601 950 l 632 828 z m 510 954 l 511 826 l 454 946 z m 569 890 l 631 824 l 515 818 l 514 851 l 513 951 z m 611 949 l 740 919 l 736 893 l 732 867 l 701 888 z m 728 864 l 636 825 l 606 947 z m 450 946 l 507 824 l 364 942 z m 478 772 l 413 683 l 363 939 l 511 817 z m 297 888 l 358 939 l 342 826 z m 360 933 l 388 789 l 407 692 l 346 818 b 346 821 346 819 346 819 z m 869 818 l 858 813 l 800 788 l 747 914 z m 743 913 l 788 808 l 793 794 l 735 865 z m 763 907 l 876 839 l 872 821 z m 294 885 l 340 822 l 153 783 z m 663 758 l 638 821 l 731 861 l 714 767 l 694 675 z m 796 785 l 699 675 l 735 861 l 775 810 z m 517 815 l 631 821 l 563 733 z m 565 729 l 600 774 l 635 819 l 693 672 z m 333 817 l 182 715 l 149 779 z m 824 794 l 872 815 l 926 765 l 865 775 l 804 786 z m 367 665 l 283 639 l 314 726 l 343 814 l 408 679 z m 213 649 l 183 713 l 336 813 l 268 717 l 215 644 z m 490 717 l 514 813 l 554 742 l 560 731 z m 308 721 l 279 638 l 219 643 l 339 810 z m 417 682 l 419 686 l 508 807 l 500 771 l 488 717 z m 928 761 l 878 722 l 804 782 z m 790 725 l 782 651 l 699 669 l 707 679 l 796 778 z m 851 688 l 786 653 l 799 778 z m 854 690 l 842 713 l 806 776 l 875 719 z m 147 774 l 179 713 l 110 521 z m 78 626 l 143 768 l 106 514 z m 154 638 l 181 710 l 182 706 l 213 642 l 125 532 l 111 514 z m 401 672 l 344 631 l 290 636 l 371 663 z m 781 649 l 743 619 l 700 665 z m 260 542 l 244 460 l 217 639 l 278 633 z m 167 436 l 108 506 l 213 635 l 183 417 z m 328 543 l 311 463 l 283 633 l 344 628 z m 208 583 l 215 629 l 242 451 l 186 417 z m 308 456 l 246 453 l 269 574 l 281 626 l 282 613 z m 58 557 l 76 619 l 90 565 l 103 511 z m 79 429 l 61 372 l 58 553 l 104 504 z m 100 404 l 107 501 l 182 411 l 90 275 z m 61 363 l 103 492 l 88 279 z m 311 429 l 321 267 l 247 449 l 310 453 z m 318 261 l 188 413 l 215 431 l 243 449 z m 354 346 l 324 264 l 318 363 l 314 443 z m 194 276 l 186 407 l 319 254 l 197 243 z m 154 140 l 90 269 l 182 404 l 169 286 z m 160 165 l 185 392 l 193 242 l 158 146 z m 376 278 l 346 264 l 326 256 l 356 342 z m 754 333 l 863 294 l 874 193 z m 726 272 l 747 332 l 764 285 l 793 199 l 707 214 z m 743 329 l 742 325 l 704 218 l 683 258 z m 832 236 l 871 189 l 799 197 l 760 307 l 751 329 z m 931 200 l 878 189 l 876 206 l 867 288 z m 451 243 l 375 250 l 331 254 l 379 275 l 411 261 z m 579 222 l 681 257 l 703 215 z m 204 240 l 322 251 l 363 188 z m 367 188 l 326 251 l 454 239 z m 464 235 l 535 161 l 371 186 l 407 207 l 463 238 z m 354 97 l 203 238 l 364 183 z m 528 226 l 568 219 l 540 161 l 468 236 z m 208 106 l 157 133 l 194 233 l 213 103 z m 217 101 l 214 124 l 199 233 l 254 144 l 308 54 z m 292 89 l 206 229 l 247 192 l 353 93 l 314 53 z m 557 188 l 572 219 l 696 211 l 544 161 z m 547 158 l 704 211 l 732 113 z m 708 211 l 794 194 l 736 114 l 722 161 z m 819 74 l 831 97 l 878 185 l 890 188 l 928 194 z m 828 158 l 801 194 l 871 185 z m 740 114 l 797 193 l 811 175 l 825 157 z m 368 183 l 533 157 l 358 96 z m 871 181 l 815 72 l 822 111 l 829 154 l 854 171 z m 544 53 l 544 88 l 543 156 l 606 140 l 726 108 z m 447 39 l 418 0 l 318 50 l 536 154 z m 424 1 l 539 153 l 542 72 l 542 53 z m 775 88 l 739 110 l 825 153 l 818 108 l 811 65 z m 324 57 l 357 92 l 514 147 z m 547 51 l 732 107 l 672 -4 z m 808 63 l 715 14 l 729 76 l 736 107 z m 676 -4 l 731 96 l 722 64 l 710 13 z m 228 76 l 219 96 l 264 74 l 304 53 l 236 60 z m 397 6 l 249 54 l 313 49 l 356 26 z m 425 -1 l 543 49 l 581 -10 z m 665 -6 l 585 -10 l 547 47 z "},"d":{"ha":1028,"x_min":0,"x_max":0,"o":"m 982 519 l 954 650 b 954 651 954 650 954 651 l 897 757 b 897 758 899 757 897 758 l 893 790 l 893 792 l 717 899 b 715 899 717 899 715 899 l 597 940 l 328 960 l 326 958 l 254 931 l 226 950 l 225 950 l 90 940 l 89 940 l 44 940 b 42 940 43 940 42 940 l 42 938 l 74 808 l 74 650 b 75 649 74 649 75 649 l 93 519 l 75 390 l 74 389 l 93 128 l 93 126 l 93 17 l 93 15 b 94 14 93 15 94 14 l 211 24 l 299 -4 l 300 -4 b 301 -4 300 -4 300 -4 l 356 14 l 485 6 l 563 6 l 564 6 l 636 26 b 638 26 636 26 638 26 l 758 75 l 760 75 l 888 182 l 889 183 l 947 299 b 949 300 949 299 949 299 l 986 411 b 986 413 986 413 986 413 z m 589 938 l 357 839 l 347 878 l 329 956 z m 256 929 l 324 954 l 281 868 l 275 881 z m 306 910 l 326 951 l 353 839 l 283 865 z m 221 946 l 114 831 l 99 901 l 92 938 z m 226 946 l 251 929 l 211 850 l 221 911 z m 213 883 l 204 838 l 154 813 l 181 863 l 222 938 z m 46 938 l 89 938 l 96 903 l 108 838 l 61 913 z m 396 775 l 596 938 l 697 878 z m 217 936 l 150 811 l 115 828 z m 358 836 l 585 932 l 389 774 l 374 806 z m 613 932 l 713 896 l 701 879 z m 76 811 l 47 928 l 110 828 z m 263 901 l 279 865 l 210 839 l 253 925 z m 708 886 l 715 894 l 864 804 l 703 878 z m 733 828 l 810 722 l 661 833 l 699 875 z m 424 781 l 693 872 l 676 854 l 657 835 z m 889 789 l 819 715 l 792 756 l 707 872 z m 282 863 l 351 836 l 265 801 z m 278 861 l 261 801 l 210 836 z m 258 799 l 119 667 l 207 833 l 233 817 z m 386 772 l 233 729 l 356 833 z m 403 772 l 657 832 l 653 803 l 647 772 z m 139 757 l 151 807 l 201 831 l 119 675 z m 653 790 l 660 831 l 808 719 l 650 772 z m 344 829 l 231 732 l 264 797 z m 132 817 l 149 807 l 100 704 l 81 663 l 114 825 z m 88 710 l 78 665 l 78 807 l 110 824 z m 79 653 l 143 790 l 136 763 l 111 661 z m 126 669 l 176 717 l 257 790 l 225 726 z m 894 758 l 828 719 l 890 786 l 893 768 z m 551 707 l 397 769 l 643 768 z m 544 707 l 358 699 l 364 711 l 389 768 z m 689 703 l 557 707 l 647 768 z m 233 725 l 385 768 l 372 740 l 354 699 z m 653 767 l 810 714 l 693 703 z m 893 753 l 846 603 l 831 554 l 821 713 z m 950 650 l 835 549 l 846 586 l 897 753 z m 354 694 l 336 589 l 231 721 z m 115 658 l 219 719 l 158 624 l 97 528 z m 333 586 l 281 574 l 254 568 l 228 718 z m 225 717 l 250 569 l 190 604 z m 161 621 l 219 711 l 186 604 l 106 532 z m 821 671 l 828 547 l 768 615 l 696 700 l 818 711 z m 525 242 l 444 246 l 443 246 l 357 242 l 376 407 l 339 585 l 357 694 l 551 704 l 615 660 l 615 658 l 667 607 l 701 500 l 667 326 l 606 281 l 603 279 l 601 278 z m 685 700 l 617 661 l 558 703 z m 668 611 l 619 658 l 676 692 l 689 699 l 682 669 z m 826 543 l 799 525 l 771 507 l 697 690 z m 669 608 l 690 690 l 696 607 l 700 515 z m 768 506 l 706 503 l 694 690 z m 94 531 l 78 649 l 89 651 l 111 656 l 96 543 z m 900 446 l 854 510 l 832 542 l 949 644 z m 951 640 l 978 519 l 904 446 l 906 451 z m 185 553 l 189 600 l 221 583 l 251 565 l 219 496 l 172 392 z m 96 518 l 183 597 l 114 376 z m 175 558 l 185 589 l 168 381 l 117 368 z m 219 489 l 254 564 l 332 582 l 272 508 l 176 393 z m 313 472 l 307 446 l 175 385 l 333 578 z m 325 513 l 338 576 l 372 411 l 311 446 z m 803 356 l 799 329 l 772 503 l 826 539 z m 876 474 l 899 440 l 803 321 l 832 538 z m 979 515 l 983 414 l 904 440 z m 78 390 l 94 507 l 97 481 l 111 368 l 101 375 z m 706 499 l 768 503 l 733 328 z m 797 315 l 736 321 l 771 494 l 774 471 z m 688 413 l 703 489 l 706 478 l 732 321 l 671 328 z m 172 379 l 306 442 l 271 308 z m 356 250 l 332 357 l 313 442 l 372 407 z m 983 411 l 947 306 l 904 438 z m 274 306 l 308 436 l 353 244 z m 946 300 l 889 193 l 901 429 z m 819 276 l 801 314 l 817 333 l 894 429 l 833 246 z m 885 189 l 836 242 l 897 425 z m 115 324 l 82 383 l 111 365 l 143 276 z m 96 136 l 78 382 l 100 343 l 149 257 z m 142 371 l 168 378 l 189 283 l 194 256 l 117 363 z m 226 272 l 199 251 l 172 375 l 269 306 z m 140 292 l 119 353 l 193 251 l 151 260 z m 725 318 l 615 283 l 669 325 l 679 324 z m 735 318 l 796 313 l 676 144 z m 606 275 l 731 317 l 671 139 z m 821 265 l 831 242 l 679 143 l 706 181 l 799 310 z m 269 153 l 217 225 l 200 249 l 224 267 l 269 301 z m 274 151 l 274 301 l 353 239 z m 599 60 l 503 139 l 601 272 l 617 153 l 632 32 z m 597 271 l 543 199 l 506 147 l 528 239 z m 636 36 l 610 236 l 606 267 l 669 133 z m 100 138 l 151 257 l 194 249 z m 188 143 l 199 244 l 269 147 l 218 106 l 181 76 z m 138 101 l 97 128 l 121 157 l 194 243 l 186 167 l 176 75 z m 465 210 l 447 243 l 524 238 l 500 143 z m 497 142 l 368 203 l 443 242 z m 436 242 l 367 206 l 358 238 z m 883 185 l 681 139 l 833 239 l 836 236 z m 363 203 l 282 154 l 347 226 l 354 236 z m 303 164 l 363 199 l 300 4 l 274 146 z m 388 169 l 369 199 l 379 194 l 500 136 l 485 13 z m 483 8 l 357 18 l 360 78 l 367 197 z m 354 17 l 303 0 l 329 86 l 363 188 z m 881 181 l 758 79 l 731 97 l 676 133 z m 218 67 l 182 74 l 215 101 l 268 142 l 238 64 z m 297 3 l 240 64 l 271 139 l 283 72 z m 561 10 l 488 8 l 490 33 l 503 132 z m 754 76 l 639 31 l 661 99 l 672 132 l 714 104 z m 632 28 l 564 10 l 506 132 z m 96 125 l 136 99 l 175 72 l 96 19 z m 208 26 l 100 18 l 178 69 z m 201 42 l 182 69 l 236 61 l 211 28 z m 293 1 l 214 26 l 226 43 l 239 60 z "},"e":{"ha":897,"x_min":0,"x_max":0,"o":"m 824 53 l 824 139 l 814 175 l 832 243 l 832 244 b 832 246 832 244 832 246 l 831 246 l 775 246 l 774 246 l 654 228 b 653 228 654 228 653 228 l 579 214 l 472 232 b 471 232 472 232 471 232 l 319 222 l 306 304 l 324 374 l 453 364 b 456 364 454 364 456 364 l 588 378 l 679 372 b 681 372 681 372 681 372 l 682 372 l 733 382 b 735 383 733 383 735 383 l 757 428 l 767 532 b 767 535 768 533 767 535 l 729 590 l 728 590 l 686 582 l 460 583 b 458 583 460 583 458 583 l 329 568 l 315 622 l 329 714 l 468 721 l 569 736 l 719 722 l 822 742 b 824 742 822 742 824 742 b 824 743 824 743 824 743 l 810 776 l 817 867 b 817 868 817 867 817 868 l 817 869 l 817 925 b 815 926 817 925 817 926 l 781 950 l 667 942 l 464 950 l 318 950 l 151 940 l 58 954 b 56 953 56 954 56 953 l 83 817 l 61 632 b 61 629 60 631 61 631 l 75 539 l 56 422 l 65 286 l 56 199 b 56 197 56 197 56 197 l 56 196 l 83 100 l 56 11 l 57 10 l 99 0 l 100 0 l 393 19 l 504 -4 l 506 -4 l 589 6 l 747 6 l 840 6 b 842 7 842 6 842 7 z m 64 950 l 150 938 l 174 869 z m 61 949 l 176 864 l 122 793 l 110 824 z m 322 946 l 454 946 l 365 903 z m 478 933 l 508 908 l 372 903 l 463 946 z m 775 946 l 721 886 l 694 914 l 671 939 z m 469 946 l 654 939 l 514 908 l 503 918 z m 310 946 l 179 867 l 153 938 z m 363 901 l 240 797 l 274 861 l 318 946 z m 776 942 l 779 946 l 808 882 l 813 869 l 725 886 z m 783 943 l 813 924 l 813 879 l 788 935 z m 314 943 l 235 793 l 182 864 z m 667 938 l 717 886 l 610 886 z m 660 938 l 606 886 l 556 897 l 522 906 z m 63 935 l 118 794 l 86 819 z m 371 900 l 513 904 l 517 878 l 526 825 z m 524 851 l 515 904 l 600 883 l 565 854 l 529 826 z m 524 822 l 394 782 l 381 840 l 368 899 z m 326 718 l 303 738 l 238 790 l 363 897 z m 360 750 l 331 721 l 365 894 l 390 781 z m 717 882 l 572 743 l 607 882 z m 724 881 l 778 856 l 735 822 l 731 846 z m 594 761 l 718 881 l 732 821 l 578 744 z m 807 867 l 781 857 l 760 867 l 733 879 l 763 875 z m 601 874 l 569 743 l 531 822 l 603 879 z m 813 865 l 807 785 l 800 803 l 783 854 z m 232 790 l 171 739 l 136 711 l 146 746 l 179 861 z m 124 789 l 175 857 l 133 715 z m 758 806 l 736 819 l 758 836 l 779 853 l 804 779 z m 506 792 l 467 726 l 424 758 l 396 779 l 524 819 z m 471 725 l 508 788 l 528 819 l 567 740 z m 575 739 l 732 817 l 722 757 l 718 726 z m 735 815 l 817 744 l 721 726 z m 65 644 l 86 815 l 121 789 l 93 718 z m 818 749 l 778 783 l 750 807 l 807 774 z m 136 706 l 232 786 l 222 661 z m 225 663 l 232 736 l 236 786 l 324 715 z m 76 665 l 121 782 l 129 722 l 132 707 l 67 638 z m 463 725 l 332 717 l 393 776 l 446 738 z m 324 711 l 278 633 l 226 660 z m 325 707 l 313 624 l 282 632 z m 65 632 l 133 703 l 208 551 z m 211 554 l 138 701 l 221 658 z m 214 554 l 222 636 l 225 657 l 275 631 z m 301 597 l 324 568 l 263 557 l 217 550 l 235 572 l 278 629 z m 313 621 l 324 574 l 315 585 l 283 628 z m 64 628 l 206 549 l 78 540 z m 690 579 l 728 588 l 760 539 z m 457 579 l 451 528 l 374 553 l 336 565 z m 489 579 l 675 578 l 633 558 z m 468 578 l 547 567 l 626 556 l 551 526 l 519 546 z m 756 536 l 640 557 l 686 578 z m 461 578 l 525 539 l 546 526 l 454 526 l 457 553 z m 218 546 l 326 564 l 326 467 l 290 493 z m 329 563 l 396 499 l 329 467 z m 449 525 l 438 519 l 399 500 l 335 561 z m 697 500 l 631 467 l 633 510 l 636 554 l 760 532 z m 631 510 l 628 468 l 556 525 l 594 539 l 633 554 z m 81 536 l 206 546 l 136 489 l 117 504 z m 301 481 l 321 467 l 140 488 l 213 544 z m 60 425 l 78 533 l 133 486 z m 764 531 l 754 432 l 633 464 z m 585 385 l 457 524 l 550 524 z m 438 465 l 404 496 l 425 508 l 450 521 l 444 493 l 439 464 z m 497 431 l 442 461 l 454 521 l 578 388 z m 607 424 l 588 385 l 571 453 l 554 521 l 628 463 z m 438 461 l 329 382 l 353 419 l 400 494 z m 392 486 l 325 383 l 328 446 l 329 463 l 396 493 z m 319 463 l 171 392 l 139 485 z m 135 483 l 151 438 l 167 392 l 114 407 l 61 422 z m 751 429 l 682 376 l 633 461 z m 249 353 l 225 317 l 199 353 l 172 389 l 322 460 z m 678 375 l 590 381 l 629 460 l 654 417 z m 456 367 l 442 458 l 581 381 z m 328 376 l 438 458 l 447 397 l 453 367 z m 243 328 l 231 319 l 250 347 l 325 457 l 321 376 z m 751 425 l 732 386 l 688 376 z m 61 418 l 124 400 l 165 388 l 113 318 l 94 351 z m 68 289 l 60 413 l 111 315 l 78 294 z m 188 361 l 222 314 l 126 236 l 171 385 z m 114 313 b 114 314 114 314 114 314 l 165 381 l 144 310 l 125 240 z m 307 364 l 319 371 l 303 307 l 231 315 z m 281 275 l 217 190 l 226 313 l 300 303 z m 218 249 l 213 186 l 126 231 l 222 310 z m 60 207 l 68 285 l 108 308 l 89 268 z m 113 307 l 122 232 l 61 201 z m 317 222 l 218 188 l 303 300 z m 778 243 l 828 243 l 794 199 z m 786 211 l 792 197 l 724 175 l 647 153 l 774 242 z m 761 240 l 572 163 l 654 224 z m 828 238 l 811 178 l 810 181 l 796 196 z m 761 238 l 732 215 l 635 149 l 568 157 z m 338 221 l 471 229 l 483 204 z m 567 213 l 488 204 l 475 228 z m 214 79 l 61 197 l 92 213 l 124 228 l 174 146 z m 149 193 l 128 226 l 153 214 l 213 182 l 218 79 z m 647 222 l 564 160 l 581 210 z m 483 201 l 461 171 l 439 142 l 326 218 z m 314 218 l 222 76 l 215 182 z m 435 140 l 319 93 l 319 218 z m 317 92 l 225 74 l 256 121 l 317 215 z m 492 201 l 576 210 l 571 193 l 558 158 l 536 172 z m 471 181 l 486 200 l 556 157 l 443 142 z m 647 149 l 790 193 l 765 142 z m 86 101 l 60 193 l 214 75 z m 808 176 l 810 175 l 769 144 l 794 192 z m 819 142 l 772 142 l 801 164 l 811 172 z m 564 154 l 633 144 l 610 75 l 599 42 z m 521 149 l 556 153 l 478 93 l 460 115 l 443 138 z m 531 76 l 504 3 l 501 14 l 479 90 l 556 150 z m 561 149 l 596 36 l 507 0 z m 636 144 l 760 138 l 601 39 z m 817 138 l 708 61 l 767 138 z m 326 92 l 439 138 l 474 92 z m 704 54 l 817 133 l 756 29 l 738 38 z m 819 132 l 819 54 l 761 32 z m 606 38 l 757 132 l 749 119 l 699 54 z m 139 26 l 100 4 l 88 97 l 215 71 z m 60 13 l 85 92 l 97 4 z m 393 24 l 322 89 l 471 89 z m 385 25 l 228 72 l 317 89 l 357 51 z m 397 22 l 467 79 l 476 88 l 501 0 z m 107 4 l 219 71 l 382 22 z m 600 10 l 700 51 l 750 29 z m 821 50 l 836 10 l 761 28 l 772 32 z m 686 49 l 592 10 l 600 33 z m 517 0 l 594 32 l 590 17 l 588 8 z m 781 19 l 826 8 l 750 8 l 758 26 z m 746 8 l 614 8 l 753 25 l 749 14 z "},"f":{"ha":883,"x_min":0,"x_max":0,"o":"m 828 786 l 810 881 l 810 929 b 810 931 810 929 810 931 b 810 932 810 931 810 931 l 801 953 b 799 954 800 954 800 954 l 625 940 l 463 950 l 379 940 l 324 950 l 253 942 l 142 950 l 75 940 b 74 939 75 940 75 939 l 56 814 l 56 813 l 57 811 l 93 756 l 65 553 l 65 551 b 65 550 65 551 65 550 l 69 486 b 71 485 71 486 71 485 l 89 335 b 88 333 89 333 89 333 l 74 185 l 69 111 l 69 110 l 69 11 l 71 10 l 132 10 l 264 0 l 314 10 l 338 14 b 339 17 338 14 339 15 l 319 203 l 333 350 l 388 340 l 454 350 l 668 350 l 738 360 b 739 361 739 360 739 360 l 749 411 b 749 413 749 411 749 413 l 740 507 l 740 557 b 739 558 740 557 740 558 l 649 558 l 575 549 l 463 568 l 325 558 l 333 654 b 333 656 333 656 333 656 l 329 714 l 411 718 l 499 704 b 500 704 499 704 500 704 l 617 718 l 807 715 b 808 715 807 715 808 715 b 810 717 810 715 810 715 l 828 785 z m 799 951 l 806 932 l 651 939 z m 143 946 l 249 938 l 168 881 l 150 929 z m 171 878 l 321 946 l 324 856 l 326 719 z m 313 946 l 182 886 l 254 938 z m 326 946 l 378 938 l 379 922 l 386 828 z m 478 946 l 624 938 l 678 889 z m 383 938 l 460 946 l 451 932 l 429 900 l 399 924 z m 81 938 l 139 946 l 150 918 l 164 882 z m 463 946 l 531 868 l 479 883 l 433 897 z m 538 865 l 468 944 l 678 885 z m 328 819 l 325 939 l 386 818 l 329 721 z m 797 928 l 686 886 l 629 938 z m 389 825 l 381 935 l 428 896 z m 136 897 l 165 878 l 111 799 l 79 933 z m 58 814 l 76 928 l 96 851 l 108 797 z m 735 861 l 807 926 l 807 882 z m 800 925 l 728 861 l 701 878 l 690 885 z m 435 894 l 532 864 l 526 861 l 478 839 z m 440 831 l 392 821 l 417 869 l 431 893 l 472 838 z m 629 822 l 686 882 l 689 879 l 760 811 z m 603 872 l 681 882 l 625 822 l 544 864 z m 790 854 l 765 811 l 749 833 l 731 857 l 804 878 z m 807 876 l 824 789 l 768 810 l 793 853 z m 203 746 l 158 768 l 169 874 l 211 799 l 253 724 z m 726 857 l 749 826 l 701 872 z m 165 871 l 156 769 l 114 794 z m 258 721 l 176 867 l 324 717 z m 483 838 l 536 863 l 615 824 z m 497 711 l 392 817 l 447 829 l 475 835 z m 501 710 l 479 835 l 621 819 z m 786 760 l 803 721 l 633 818 l 764 807 z m 626 818 l 801 718 l 618 721 l 621 753 z m 506 708 l 608 804 l 622 817 l 617 744 l 615 721 z m 331 717 l 358 765 l 386 813 l 410 721 z m 494 708 l 413 721 l 392 813 z m 61 810 l 64 808 l 108 793 l 101 776 l 94 760 z m 824 785 l 807 722 l 788 764 l 768 806 l 779 801 z m 129 764 l 97 760 l 99 764 l 111 792 l 151 767 z m 153 701 l 158 764 l 253 719 l 200 679 l 147 640 z m 97 756 l 156 764 l 153 729 l 144 643 z m 69 557 l 96 750 l 143 636 z m 296 676 l 268 642 l 258 718 l 324 714 z m 165 613 l 149 636 l 253 715 l 200 565 z m 265 636 l 253 622 l 206 569 l 231 640 l 256 711 z m 331 656 l 272 639 l 326 710 z m 300 643 l 331 653 l 322 561 l 304 588 l 271 635 z m 301 585 l 319 558 l 206 563 l 267 633 z m 147 632 l 172 597 l 199 561 l 76 490 z m 72 493 l 68 551 l 139 625 z m 456 564 l 346 497 l 325 485 l 325 556 z m 565 547 l 447 522 l 451 533 l 464 564 z m 456 551 l 443 521 l 336 488 l 460 561 z m 315 556 l 150 478 l 163 497 l 201 560 z m 196 556 l 168 510 l 146 475 l 78 488 z m 656 556 l 738 556 l 738 510 z m 647 554 l 682 443 l 578 546 z m 708 522 l 736 507 l 719 485 l 688 440 l 651 553 z m 267 496 l 175 393 l 167 418 l 149 472 l 315 551 z m 281 438 l 240 318 l 176 389 l 275 501 l 318 549 z m 538 515 l 575 544 l 678 442 l 532 510 z m 568 544 l 561 539 l 528 511 l 456 519 z m 321 543 l 321 483 l 250 339 l 258 364 z m 415 482 l 444 518 l 519 510 l 443 482 l 403 468 z m 439 517 l 407 478 l 397 465 l 329 482 z m 572 428 l 449 418 l 528 507 l 550 467 z m 532 506 l 678 438 l 575 428 l 550 474 z m 444 419 l 400 463 l 521 506 z m 738 503 l 746 415 l 689 436 z m 169 394 l 79 483 l 133 474 l 144 472 z m 75 482 l 172 389 l 154 365 l 118 318 l 78 472 z m 356 396 l 333 357 l 326 456 l 325 479 l 360 471 l 394 463 z m 321 475 l 331 353 l 244 318 z m 92 333 l 76 464 l 90 411 l 114 319 z m 442 417 l 336 356 l 358 394 l 397 461 z m 733 363 l 607 381 l 686 433 z m 590 403 l 578 425 l 679 433 l 603 382 z m 746 411 l 736 367 l 690 432 l 701 428 z m 600 381 l 461 354 l 574 424 z m 503 383 l 454 354 l 446 415 l 567 424 z m 392 344 l 418 378 l 443 413 l 450 368 l 451 353 z m 414 381 l 386 344 l 338 353 l 438 411 z m 204 354 l 238 315 l 131 235 l 140 267 l 175 386 z m 121 303 l 119 314 l 169 379 l 129 240 z m 647 358 l 660 353 l 471 353 l 601 378 z m 725 361 l 668 353 l 614 376 z m 306 313 l 232 192 l 242 313 l 242 314 l 326 347 z m 331 344 l 317 204 l 296 200 l 233 188 z m 79 204 l 92 331 l 99 325 l 114 314 z m 132 231 l 239 311 l 231 217 l 228 188 z m 99 207 l 81 190 l 92 225 l 117 306 l 126 232 z m 201 81 l 78 185 l 128 228 z m 132 228 l 174 208 l 228 183 l 207 78 z m 231 183 l 314 200 l 211 79 z m 314 75 l 313 14 l 261 43 l 210 72 l 317 197 z m 72 111 l 78 181 l 200 76 z m 319 176 l 335 17 l 315 14 l 315 29 z m 75 107 l 204 72 l 132 14 z m 129 13 l 72 13 l 72 104 l 86 82 z m 136 13 l 207 69 l 238 32 l 260 4 z m 265 4 l 215 65 l 214 67 l 308 13 z "},"g":{"ha":1018,"x_min":0,"x_max":0,"o":"m 963 536 l 944 553 b 943 554 943 553 943 554 l 779 544 l 628 557 l 626 557 b 625 557 626 557 626 557 l 542 554 l 540 553 l 522 413 b 522 411 522 413 521 413 l 554 365 b 556 364 554 364 556 364 l 710 368 l 736 360 l 732 250 l 611 214 l 538 214 l 438 244 l 372 297 l 315 507 l 357 593 l 397 653 l 439 700 l 543 732 l 656 719 l 788 639 b 789 639 789 639 789 639 l 939 793 b 940 793 939 793 940 793 b 940 794 940 794 940 794 l 939 796 l 935 818 l 935 819 l 838 901 b 836 903 836 903 836 903 l 743 940 l 703 942 l 600 954 b 599 954 599 954 599 954 l 597 954 l 357 939 b 356 939 357 939 356 939 l 244 886 l 243 886 l 156 781 l 113 758 b 111 757 111 758 111 757 l 69 622 l 56 525 l 82 290 l 111 261 l 111 260 l 172 132 l 172 131 l 326 43 b 328 42 326 43 328 42 l 457 0 l 458 0 l 532 -8 l 535 -8 l 574 -8 b 575 -8 574 -8 574 -8 l 813 28 b 814 29 814 29 814 29 l 864 51 b 865 53 865 51 865 53 l 953 140 l 954 142 b 953 143 954 143 953 143 l 932 157 l 958 322 l 958 324 l 963 383 l 963 533 b 963 535 963 533 963 533 z m 369 938 l 596 951 l 565 894 z m 694 940 l 571 896 l 600 951 z m 707 939 l 740 938 l 768 886 l 750 901 z m 769 879 l 576 893 l 701 939 z m 746 936 l 831 901 l 814 894 l 775 881 l 765 899 z m 318 911 l 357 935 l 496 806 l 265 878 z m 363 935 l 563 890 l 532 847 l 501 804 z m 333 925 l 303 906 l 260 879 l 249 885 z m 781 874 l 778 876 l 832 899 l 824 867 l 814 836 z m 929 818 l 869 810 l 856 851 l 840 896 z m 856 839 l 865 811 l 844 821 l 817 833 l 828 871 l 835 894 z m 765 876 l 506 804 l 567 890 z m 246 883 l 253 879 l 257 876 l 179 803 z m 221 781 l 261 875 l 307 839 l 179 678 z m 511 803 l 769 874 l 763 867 l 671 772 z m 783 817 l 789 789 l 722 779 l 678 774 l 774 874 z m 465 811 l 310 842 l 269 874 z m 778 871 l 804 842 l 813 832 l 801 810 l 792 793 l 783 843 z m 163 783 l 257 871 l 174 674 l 158 778 z m 328 781 l 313 836 l 496 801 l 335 751 z m 178 671 l 307 836 l 317 803 l 331 750 z m 843 818 l 863 808 l 794 790 l 808 817 l 815 829 z m 932 815 l 936 796 l 906 803 l 878 808 z m 935 793 l 794 649 l 869 807 l 892 803 z m 839 799 l 865 806 l 790 649 l 793 785 z m 506 799 l 664 771 l 543 736 z m 442 704 l 501 799 l 539 735 z m 438 703 l 338 749 l 497 799 z m 789 729 l 788 644 l 676 769 l 789 785 z m 135 767 l 154 776 l 167 689 l 169 674 l 115 757 z m 665 754 l 656 724 l 551 735 l 669 768 z m 779 647 l 658 722 l 663 738 l 672 767 z m 74 622 l 113 751 l 131 690 l 183 500 z m 432 701 l 304 676 l 333 746 l 369 731 z m 182 668 l 257 708 l 329 744 l 314 707 l 300 675 z m 119 743 l 171 665 l 185 510 z m 432 699 l 397 657 l 308 674 z m 179 597 l 174 664 l 296 672 l 189 497 z m 375 625 l 356 597 l 313 660 l 304 671 l 394 653 z m 315 514 l 308 590 l 303 668 l 306 663 l 353 593 z m 276 579 l 251 465 l 221 479 l 190 493 l 296 664 z m 313 508 l 256 467 l 285 596 l 300 660 z m 74 617 l 186 492 l 125 392 z m 71 613 l 115 419 l 119 400 l 58 525 z m 546 550 l 624 554 l 593 497 z m 639 553 l 779 542 l 842 485 z m 626 553 l 696 481 l 596 496 z m 633 551 l 840 482 l 701 481 z m 811 543 l 942 550 l 957 536 z m 567 465 l 525 418 l 543 549 l 592 494 z m 785 540 l 956 533 l 849 482 z m 958 531 l 949 506 l 926 451 l 869 474 l 853 481 z m 960 526 l 960 390 l 957 394 l 929 450 z m 85 297 l 60 515 l 122 386 z m 313 457 l 315 292 l 279 389 l 254 461 l 313 504 z m 346 379 l 367 299 l 318 283 l 318 303 l 315 494 z m 594 493 l 694 478 l 558 369 z m 251 461 l 251 278 l 190 490 z m 188 489 l 208 417 l 249 274 l 126 388 z m 554 369 l 525 411 l 578 475 l 589 488 l 575 443 z m 706 476 l 844 479 l 785 424 z m 853 478 l 926 447 l 910 349 z m 849 478 l 907 346 l 788 422 z m 779 422 l 565 369 l 701 476 z m 314 283 l 274 274 l 254 268 l 254 453 z m 949 404 l 958 385 l 922 354 l 913 346 l 922 404 l 928 443 z m 783 418 l 803 314 l 826 183 l 739 360 z m 806 314 l 788 417 l 908 342 l 832 176 z m 575 368 l 775 417 l 710 372 z m 714 371 l 776 414 l 768 403 l 736 363 z m 960 381 l 956 326 l 914 343 z m 111 264 l 86 292 l 121 378 z m 232 199 l 229 193 l 132 378 l 250 267 z m 128 375 l 226 189 l 175 136 z m 147 260 l 169 144 l 115 261 l 117 274 l 125 374 z m 735 250 l 739 354 l 825 178 l 811 189 z m 932 332 l 953 322 l 838 182 l 911 340 z m 929 158 l 835 172 l 954 317 z m 426 249 l 322 282 l 369 294 z m 400 115 l 257 265 l 315 279 z m 428 217 l 406 111 l 319 279 l 433 243 z m 399 111 l 232 189 l 244 236 l 253 264 z m 614 211 l 731 247 l 714 139 l 704 74 z m 733 243 l 765 182 l 796 119 l 707 71 z m 829 169 l 807 136 l 799 122 l 739 242 z m 443 240 l 536 210 l 569 139 z m 436 240 l 571 133 l 460 6 l 450 100 z m 456 11 l 408 106 l 435 232 z m 540 210 l 608 210 l 574 138 l 557 174 z m 613 208 l 700 71 l 576 135 z m 397 107 l 179 135 l 231 186 z m 896 106 l 864 57 l 849 113 l 833 168 l 928 154 z m 840 131 l 860 60 l 801 118 l 831 167 z m 874 65 l 931 153 l 950 142 z m 701 67 l 576 -4 l 575 64 l 575 131 z m 328 46 l 185 129 l 403 103 z m 461 3 l 569 125 l 531 -6 z m 536 -6 l 572 122 l 572 -6 z m 810 33 l 710 68 l 797 115 z m 814 32 l 801 113 l 861 54 z m 454 4 l 331 44 l 406 101 z m 583 -4 l 706 65 l 804 31 z "},"h":{"ha":1000,"x_min":0,"x_max":0,"o":"m 925 910 b 925 911 926 910 926 911 l 935 956 l 935 957 b 935 958 935 957 935 958 l 933 960 l 799 940 l 749 958 b 747 960 749 958 749 958 b 746 958 746 960 746 960 l 672 940 b 671 939 671 940 671 940 l 653 810 b 653 807 651 808 651 808 l 681 751 l 661 586 l 575 600 l 574 600 l 518 590 l 379 604 b 378 604 379 606 378 606 l 353 588 l 329 710 l 342 732 b 343 733 343 732 343 733 l 357 783 b 357 785 357 783 357 785 l 339 943 b 338 944 339 944 339 944 b 336 944 338 944 338 946 l 236 954 b 235 954 236 954 235 954 l 233 954 l 197 944 b 196 944 197 944 197 946 l 138 964 b 136 964 138 964 136 964 l 63 944 b 61 944 61 944 61 946 l 60 944 b 60 943 60 944 60 943 l 74 878 l 65 665 b 65 663 65 664 65 663 l 74 635 l 56 492 l 56 490 l 79 328 l 79 326 l 89 278 l 65 40 l 65 39 l 74 11 b 75 10 75 10 75 10 l 76 10 l 271 10 l 272 10 l 338 10 l 339 11 l 357 57 b 357 58 357 57 357 58 b 357 60 357 58 357 58 l 339 356 l 361 374 l 553 354 l 675 368 l 661 221 l 671 72 l 661 7 b 663 6 663 6 663 6 l 664 6 l 719 14 l 829 6 b 831 6 829 6 831 6 l 832 6 l 929 14 b 931 15 929 14 929 15 l 931 17 l 917 110 l 935 247 l 935 425 l 935 426 l 940 506 l 921 607 l 944 714 l 944 715 b 944 717 944 715 944 715 z m 65 943 l 133 960 l 103 901 l 85 921 z m 138 960 l 193 943 l 108 901 l 122 929 z m 657 817 l 674 938 l 743 956 l 692 871 z m 928 956 l 908 942 l 832 886 l 801 938 z m 750 954 l 796 938 l 783 917 l 771 896 z m 746 953 l 760 874 l 764 847 l 658 811 z m 931 953 l 922 913 l 840 888 z m 233 951 l 235 940 l 240 910 l 214 932 l 200 943 z m 282 939 l 301 933 l 244 908 l 242 922 l 236 950 z m 329 943 l 308 936 l 258 949 z m 336 942 l 350 806 l 311 933 z m 129 893 l 108 897 l 194 940 l 186 881 z m 219 924 l 240 907 l 190 881 l 199 940 z m 753 926 l 751 940 l 768 892 l 765 860 z m 76 881 l 65 938 l 101 897 l 89 889 z m 828 885 l 774 894 l 799 935 z m 254 785 l 247 885 l 246 904 l 267 914 l 306 929 z m 311 919 l 353 786 l 256 778 l 268 813 l 308 928 z m 832 882 l 915 906 l 806 786 z m 919 903 l 858 692 l 806 781 z m 942 717 l 861 690 l 924 903 z m 189 876 l 239 901 l 164 750 z m 185 750 l 164 742 l 190 794 l 243 899 l 251 778 z m 106 894 l 144 886 l 185 878 l 103 732 l 69 672 z m 69 692 l 78 878 l 86 883 l 101 893 z m 794 888 l 826 882 l 768 849 l 772 890 z m 815 832 l 803 785 l 768 844 l 828 879 z m 104 726 l 183 865 l 158 740 l 74 672 z m 685 753 l 764 842 l 764 692 z m 656 807 l 758 842 l 728 807 l 682 756 z m 767 696 l 767 839 l 779 819 l 801 779 z m 254 774 l 349 783 l 289 731 l 228 679 l 233 700 z m 353 779 l 340 735 l 239 683 z m 789 740 l 801 772 l 811 697 l 818 638 l 768 688 z m 163 738 l 207 756 l 250 772 l 224 676 z m 822 638 l 811 724 l 806 772 l 857 688 z m 696 697 l 685 749 l 707 731 l 764 686 l 747 628 l 728 557 z m 665 586 l 682 743 l 701 658 l 725 550 l 714 557 z m 140 711 l 160 736 l 222 674 l 81 639 z m 338 729 l 326 713 l 253 686 l 249 683 l 278 699 z m 68 663 l 147 726 l 97 665 l 76 639 z m 940 713 l 918 611 l 881 661 l 861 686 z m 349 589 l 311 615 l 229 672 l 293 696 l 326 708 z m 890 617 l 824 633 l 840 658 l 858 685 l 914 611 z m 732 553 l 735 563 l 767 683 l 819 632 z m 221 671 l 199 636 l 186 619 l 83 636 z m 307 613 l 347 585 l 244 510 l 226 669 z m 231 607 l 240 517 l 207 582 l 189 617 l 224 668 z m 81 586 l 78 633 l 131 625 l 183 615 l 86 514 z m 885 581 l 869 568 l 854 589 l 826 628 l 871 618 l 915 607 z m 867 565 l 832 401 l 826 557 l 824 626 z m 729 546 l 813 621 l 765 551 l 682 433 z m 685 432 l 815 619 l 776 474 l 764 428 l 676 419 z m 75 619 l 83 511 l 67 500 l 60 494 z m 818 613 l 819 618 l 829 392 l 768 426 z m 150 444 l 88 510 l 185 613 l 178 576 z m 242 504 l 207 396 l 199 493 l 190 608 z m 936 510 l 871 565 l 897 588 l 918 604 z m 188 604 l 204 389 l 153 440 z m 385 601 l 515 588 l 482 526 z m 354 585 l 378 601 l 468 532 z m 572 597 l 599 460 l 540 556 l 521 588 z m 658 583 l 660 583 l 628 510 l 603 456 l 576 597 l 621 588 z m 514 579 l 518 586 l 596 457 l 525 499 l 485 525 z m 353 582 l 479 524 l 347 443 l 350 513 z m 725 547 l 674 425 l 668 536 l 665 582 z m 342 576 l 211 393 l 246 504 z m 626 497 l 663 576 l 671 419 l 665 422 l 606 450 z m 285 390 l 333 529 l 347 572 l 344 442 z m 274 474 l 344 571 l 308 471 l 279 386 l 210 386 z m 935 506 l 897 497 l 872 560 z m 893 497 l 835 400 l 861 532 l 868 560 z m 351 442 l 481 521 l 508 458 l 515 442 z m 507 472 l 488 518 l 596 450 l 519 442 z m 61 492 l 85 507 l 129 460 l 140 449 z m 936 503 l 932 432 l 910 474 l 899 494 z m 931 426 l 835 392 l 896 493 z m 82 333 l 60 489 l 74 481 l 149 439 z m 543 413 l 601 447 l 603 446 l 671 374 z m 521 439 l 542 442 l 594 446 l 539 414 z m 674 376 l 611 443 l 647 426 l 671 415 l 671 407 z m 349 439 l 510 439 l 361 378 z m 379 381 l 418 397 l 518 438 l 536 414 z m 335 360 l 283 385 l 303 401 l 343 436 z m 153 435 l 204 385 l 161 358 z m 128 347 l 85 332 l 149 435 l 157 372 l 158 358 z m 358 375 l 339 360 l 340 381 l 346 428 z m 790 275 l 676 415 l 764 425 z m 792 292 l 768 424 l 781 417 l 829 388 l 794 276 z m 926 422 l 854 339 l 797 275 l 832 388 z m 904 269 l 797 269 l 931 421 z m 679 371 l 675 410 l 776 286 z m 371 375 l 538 410 l 542 393 l 550 358 z m 554 358 l 542 410 l 668 371 z m 932 251 l 907 269 l 932 407 z m 271 351 l 261 322 l 236 351 l 210 382 l 278 382 z m 265 324 l 282 382 l 332 357 z m 171 290 l 161 354 l 186 369 l 203 381 l 178 247 z m 208 379 l 260 319 l 182 242 z m 665 224 l 678 367 l 790 268 z m 175 239 l 83 328 l 158 354 l 163 325 z m 308 160 l 276 271 l 264 318 l 333 353 z m 353 67 l 340 93 l 311 151 l 336 336 z m 83 322 l 131 278 l 168 242 l 140 254 l 92 278 z m 304 156 l 181 235 l 261 315 z m 69 47 l 92 274 l 175 235 z m 794 267 l 900 267 l 876 253 l 768 188 z m 931 249 l 865 150 l 878 185 l 907 265 z m 674 78 l 665 219 l 789 264 z m 900 263 l 803 113 l 768 183 z m 690 96 l 788 256 l 764 185 z m 876 193 l 857 139 l 808 114 l 839 161 l 897 251 z m 931 242 l 914 111 l 861 138 z m 181 89 l 181 232 l 306 151 z m 71 43 l 176 229 l 176 88 z m 728 81 l 676 74 l 763 178 l 746 83 z m 750 86 l 758 132 l 767 178 l 800 110 z m 244 56 l 232 76 l 306 146 l 271 17 z m 326 44 l 275 17 l 310 144 l 339 88 l 353 58 z m 185 86 l 300 144 l 231 78 z m 833 29 l 831 14 l 806 108 l 857 135 z m 893 85 l 833 14 l 838 32 l 860 135 l 913 108 z m 926 18 l 835 8 l 875 57 l 914 106 z m 828 8 l 722 17 l 803 106 z m 749 79 l 796 104 l 725 25 z m 215 33 l 211 17 l 181 83 l 228 75 z m 208 13 l 81 13 l 178 83 l 193 47 z m 76 14 l 68 38 l 139 68 l 165 79 z m 665 11 l 674 71 l 688 72 l 740 78 z m 668 10 l 700 38 l 742 75 l 736 63 l 718 18 z m 268 13 l 213 13 l 217 28 l 231 71 l 243 53 z m 353 54 l 336 13 l 278 13 z "},"i":{"ha":408,"x_min":0,"x_max":0,"o":"m 339 478 l 353 714 b 353 715 353 715 353 715 b 351 717 353 717 351 717 l 333 749 l 319 874 l 339 947 b 339 949 339 949 339 949 b 338 950 338 950 338 950 l 239 940 l 114 950 l 75 940 l 74 939 l 56 883 l 83 771 l 60 519 l 74 407 l 83 268 l 69 236 l 69 235 l 65 157 b 65 154 65 156 65 154 l 74 15 l 75 14 l 178 6 l 214 6 b 215 6 215 6 215 6 l 217 6 l 286 6 l 288 6 l 342 14 b 343 15 343 14 343 15 l 347 79 l 347 81 l 347 275 l 347 276 l 347 332 b 347 333 347 332 347 333 b 347 335 347 333 347 335 z m 61 890 l 76 938 l 108 946 z m 335 946 l 317 875 l 239 901 z m 326 946 l 236 904 l 239 926 l 240 938 z m 121 946 l 232 938 l 175 913 z m 169 910 l 149 881 l 106 824 l 114 944 z m 111 943 l 107 874 l 103 822 l 60 883 z m 235 914 l 233 903 l 181 911 l 238 936 z m 186 908 l 229 900 l 113 826 l 175 910 z m 238 817 l 242 736 l 107 818 l 233 899 z m 315 872 l 246 742 l 236 899 z m 86 778 l 61 874 l 85 842 l 101 818 l 92 794 z m 317 867 l 331 750 l 278 740 l 247 736 l 296 829 z m 107 814 l 240 733 l 151 653 z m 104 813 l 121 751 l 144 664 l 88 771 z m 64 524 l 86 760 l 131 586 l 71 531 z m 90 757 l 149 649 l 132 590 z m 332 746 l 347 718 l 279 729 l 254 733 z m 246 732 l 347 714 l 306 665 l 264 617 l 250 703 z m 206 589 l 153 650 l 240 728 z m 261 614 l 210 588 l 244 724 z m 346 706 l 272 536 l 264 611 l 300 653 z m 349 704 l 335 482 l 274 529 z m 133 586 l 138 601 l 151 646 l 176 615 l 203 586 z m 210 585 l 261 610 l 265 571 l 269 533 l 240 558 z m 100 479 l 133 583 l 203 583 l 81 417 z m 257 474 l 235 363 l 208 581 l 268 528 z m 76 417 l 64 518 l 100 553 l 128 578 l 94 474 z m 82 413 l 201 575 l 168 465 z m 232 360 l 171 464 l 206 575 l 218 468 z m 238 360 l 272 524 l 306 460 z m 322 469 l 310 461 l 294 489 l 278 521 l 324 486 l 335 478 z m 335 475 l 343 347 l 342 353 l 311 458 z m 185 300 l 78 407 l 122 433 l 168 461 l 175 397 z m 343 335 l 238 353 l 272 404 l 307 456 z m 183 351 l 172 454 l 232 351 l 218 335 l 189 300 z m 86 269 l 78 403 l 185 296 z m 250 347 l 336 332 l 193 299 l 236 350 z m 289 265 l 263 233 l 192 294 l 342 331 z m 278 246 l 344 328 l 344 278 l 292 249 l 269 236 z m 190 206 l 163 196 l 189 292 l 258 231 z m 75 239 l 86 267 l 174 290 z m 142 246 l 68 161 l 72 233 l 179 289 z m 129 224 l 185 288 l 171 236 l 158 194 l 74 160 z m 324 263 l 340 271 l 229 100 l 264 229 z m 317 74 l 228 92 l 343 269 z m 326 128 l 344 253 l 344 83 l 319 74 z m 163 167 l 161 192 l 258 228 l 194 111 l 171 69 z m 174 67 l 256 215 l 224 92 z m 68 154 l 157 190 l 143 151 l 103 33 z m 107 29 l 158 185 l 167 64 z m 78 19 l 69 140 l 74 125 l 101 26 l 93 24 z m 218 10 l 226 89 l 249 85 l 313 71 z m 186 46 l 172 63 l 224 88 l 219 57 l 214 11 z m 344 78 l 340 24 l 333 39 l 321 71 l 333 75 z m 339 17 l 289 8 l 318 68 l 322 57 z m 221 8 l 313 67 l 285 8 z m 174 25 l 175 10 l 149 15 l 108 26 l 132 39 l 168 60 z m 211 8 l 181 8 l 174 44 l 172 56 z m 157 10 l 85 17 l 104 24 l 119 19 z "},"j":{"ha":804,"x_min":0,"x_max":0,"o":"m 731 757 l 749 858 b 749 860 749 858 749 860 l 744 943 b 744 944 744 943 744 944 l 743 944 b 742 944 743 946 742 946 l 740 944 l 565 936 l 464 950 l 461 950 b 461 949 461 949 461 949 l 479 711 l 465 618 b 465 617 465 618 465 618 l 479 524 l 461 408 b 461 407 461 408 461 408 l 471 274 l 389 214 l 306 228 b 304 228 304 228 304 228 l 226 301 b 225 301 226 301 225 301 l 224 301 l 179 279 b 176 278 178 279 178 279 l 108 190 l 56 153 b 56 151 56 151 56 151 l 103 89 l 251 11 b 251 10 251 10 251 10 l 372 -8 b 375 -8 375 -8 375 -8 l 463 -4 l 464 -4 l 533 14 l 626 75 l 628 75 l 711 188 l 739 289 b 739 290 739 290 739 290 l 739 292 b 739 293 739 292 739 293 l 721 347 l 744 439 b 744 440 744 440 744 440 l 731 501 l 739 663 b 739 665 739 664 739 665 z m 469 946 l 564 933 l 590 854 z m 507 833 l 467 943 l 592 850 l 528 779 z m 568 932 l 736 942 l 596 853 l 576 907 z m 736 938 l 649 779 l 596 850 z m 742 938 l 746 861 l 690 814 l 656 783 z m 465 936 l 486 879 l 525 776 l 482 715 z m 743 854 l 726 758 l 653 776 l 704 821 z m 646 776 l 568 717 l 542 696 l 594 846 z m 529 775 l 589 842 l 586 836 l 539 700 z m 675 768 l 724 756 l 640 651 l 650 774 z m 639 679 l 636 649 l 542 692 l 647 772 z m 482 651 l 526 768 l 536 692 l 472 624 z m 471 633 l 483 710 l 514 754 l 521 763 l 481 660 z m 724 750 l 708 685 l 692 619 l 640 646 z m 728 746 l 736 665 l 696 622 z m 621 538 l 469 618 l 538 689 l 610 560 z m 597 592 l 544 686 l 592 665 l 636 644 l 626 540 z m 736 660 l 728 510 l 722 528 l 696 617 l 733 657 z m 629 540 l 639 642 l 690 617 z m 483 526 l 469 614 l 621 535 z m 661 524 l 629 535 l 661 575 l 692 614 l 725 504 z m 485 522 l 621 532 l 610 524 l 542 475 z m 736 443 l 547 474 l 628 532 z m 740 444 l 635 529 l 639 528 l 726 499 z m 465 413 l 482 521 l 539 472 z m 544 471 l 735 439 l 585 378 l 564 424 z m 571 401 l 581 378 l 467 408 l 540 469 z m 738 436 l 640 303 l 588 374 z m 739 432 l 718 349 l 646 306 z m 465 404 l 581 374 l 518 303 z m 465 399 l 488 356 l 515 301 l 485 282 l 474 275 z m 581 356 l 585 371 l 638 300 l 533 222 z m 529 225 l 519 299 l 581 367 z m 669 317 l 718 344 l 735 293 l 644 301 z m 631 175 l 639 274 l 642 299 l 733 289 z m 181 276 l 222 297 l 185 136 z m 226 297 l 301 226 l 229 165 l 186 129 z m 632 235 l 628 172 l 532 217 l 638 296 z m 474 271 l 514 296 l 474 192 z m 475 188 l 517 293 l 528 218 l 485 193 z m 735 285 l 708 190 l 635 172 l 689 233 z m 176 272 l 179 185 l 182 128 l 111 189 z m 392 213 l 471 269 l 471 186 l 417 204 z m 307 224 l 385 211 l 364 183 l 342 154 z m 301 221 l 251 15 l 185 122 z m 257 21 l 282 128 l 304 221 l 322 186 l 340 151 z m 619 83 l 475 183 l 529 214 z m 624 83 l 533 213 l 626 168 z m 356 168 l 388 210 l 467 183 l 346 154 z m 108 186 l 125 171 l 176 126 l 61 151 z m 628 82 l 629 151 l 631 168 l 706 186 z m 471 182 l 617 81 l 349 151 z m 104 93 l 61 149 l 176 122 l 136 106 z m 532 18 l 351 147 l 622 76 z m 372 -6 l 256 13 l 283 57 l 340 146 l 360 56 z m 458 -1 l 375 -6 l 346 139 l 344 144 l 367 117 z m 529 17 l 464 -1 l 351 142 z m 249 15 l 107 90 l 122 97 l 182 121 z "},"k":{"ha":1014,"x_min":0,"x_max":0,"o":"m 958 7 l 903 96 l 893 128 l 818 190 l 817 192 l 600 514 l 663 564 l 664 564 b 665 565 664 565 665 565 l 665 568 l 776 728 l 874 872 b 875 874 875 872 875 872 l 929 914 b 931 915 931 915 931 915 l 931 917 l 917 935 l 915 936 l 776 950 l 775 950 l 635 936 b 633 935 633 936 633 935 l 568 828 l 481 754 l 479 753 l 478 750 l 407 647 b 406 646 406 647 406 647 l 315 546 l 325 701 l 329 751 b 329 754 329 753 329 753 l 315 786 l 333 942 b 333 943 333 943 333 943 l 333 944 b 331 944 332 946 332 944 l 288 944 l 286 944 b 285 944 286 946 285 946 l 240 954 l 133 954 l 85 954 b 83 954 85 954 85 954 l 83 953 l 69 879 b 69 876 69 878 69 878 l 79 785 l 69 628 l 60 529 l 56 515 l 79 454 l 56 311 l 56 310 b 56 308 56 310 56 310 l 69 132 l 60 13 b 60 11 60 11 60 11 b 61 10 60 10 60 10 l 63 10 l 201 10 l 263 19 l 313 10 b 314 10 313 10 314 10 l 315 10 l 333 19 l 333 21 l 333 271 l 407 354 l 457 326 l 471 272 l 507 228 l 619 47 l 667 6 l 668 6 l 835 0 l 907 6 l 957 6 b 958 6 957 6 958 6 z m 88 951 l 129 951 l 100 894 l 99 897 z m 133 951 l 232 951 l 103 892 z m 282 943 l 240 901 l 240 951 z m 235 949 l 192 871 l 106 888 z m 238 899 l 199 875 l 238 946 z m 772 946 l 746 874 l 681 938 z m 775 946 l 835 900 l 868 875 l 749 871 l 763 908 z m 74 881 l 85 944 l 92 913 l 97 889 z m 871 926 l 925 915 l 874 875 l 785 944 z m 914 932 l 925 918 l 810 943 z m 328 942 l 313 926 l 290 942 z m 286 942 l 303 931 l 310 925 l 246 901 z m 331 939 l 315 813 l 315 924 z m 678 936 l 743 871 l 686 857 l 576 831 z m 581 840 l 636 932 l 672 936 z m 249 775 l 240 896 l 311 922 z m 300 886 l 313 917 l 313 786 l 251 769 z m 238 892 l 243 800 l 246 768 l 113 732 z m 231 890 l 147 783 l 125 754 l 192 867 b 193 867 193 867 193 867 l 194 868 z m 89 822 l 101 886 l 188 868 l 83 789 z m 81 797 l 72 876 l 92 883 l 97 885 l 90 851 z m 869 872 l 758 757 l 749 868 z m 751 776 l 753 754 l 682 729 l 701 771 l 746 864 z m 636 786 l 742 864 l 678 728 l 585 746 z m 493 760 l 571 825 l 726 863 z m 169 850 l 186 863 l 108 732 l 83 785 z m 488 754 l 731 861 l 578 747 z m 861 858 l 775 732 l 774 735 l 758 753 z m 325 754 l 231 733 l 313 783 z m 228 736 l 250 765 l 301 781 z m 82 779 l 107 728 l 74 638 z m 219 731 l 121 731 l 244 764 z m 325 750 l 321 704 l 264 719 l 228 729 z m 667 578 l 679 707 l 681 725 l 753 750 z m 482 750 l 576 744 l 438 604 z m 772 729 l 675 586 l 711 658 l 757 749 l 765 740 z m 649 689 l 596 618 l 589 681 l 582 743 l 676 725 z m 476 743 l 435 603 l 428 614 l 408 644 z m 576 739 l 532 586 l 439 600 z m 592 632 l 593 614 l 536 588 l 544 615 l 579 736 z m 110 728 l 215 728 l 75 631 z m 321 700 l 313 549 l 224 726 z m 76 628 l 147 676 l 218 725 l 182 610 z m 236 575 l 185 608 l 219 719 z m 224 719 l 310 546 l 240 572 z m 597 614 l 617 640 l 676 719 l 661 569 z m 406 643 l 419 621 l 431 599 l 319 549 z m 74 625 l 181 607 l 157 572 l 110 506 z m 64 529 l 72 617 l 94 542 l 106 506 z m 660 565 l 600 518 l 597 564 l 596 610 l 608 601 z m 553 538 l 522 481 l 533 568 l 535 583 l 589 608 z m 522 472 l 593 607 l 596 515 l 547 488 z m 185 360 l 185 606 l 238 569 l 211 463 z m 178 599 l 144 438 l 110 500 z m 436 597 l 526 583 l 339 517 z m 171 379 l 147 432 l 182 592 l 182 354 z m 422 592 l 328 513 l 315 542 z m 329 508 l 526 581 l 333 407 l 331 483 z m 340 407 l 532 581 l 521 497 l 517 469 z m 311 542 l 188 356 l 240 568 z m 306 496 l 314 536 l 326 511 l 299 461 z m 308 533 l 293 450 l 217 381 l 193 360 z m 60 515 l 63 526 l 76 518 l 94 507 z m 700 276 l 521 468 l 558 490 l 596 513 z m 81 458 l 60 511 l 106 500 z m 326 504 l 329 457 l 331 408 l 297 450 z m 607 499 l 810 196 l 708 268 z m 135 436 l 83 456 l 96 476 l 108 497 l 142 433 z m 513 464 l 407 358 l 336 403 z m 700 271 l 553 335 l 522 463 z m 457 331 l 410 357 l 514 461 l 499 428 z m 486 324 l 518 458 l 533 400 l 549 335 l 475 276 z m 60 317 l 82 451 l 125 438 l 143 431 z m 472 279 l 460 328 l 513 450 l 504 415 z m 272 332 l 261 318 l 274 364 l 294 446 l 329 403 z m 257 313 l 186 347 l 292 444 z m 146 428 l 163 389 l 181 349 l 61 313 z m 333 276 l 333 400 l 369 378 l 404 356 z m 297 290 l 260 165 l 260 310 l 274 326 l 328 393 z m 307 313 l 331 392 l 331 274 l 264 165 z m 232 264 l 211 222 l 185 344 l 254 308 z m 129 300 l 182 343 l 208 222 z m 65 310 l 175 343 l 126 301 z m 582 285 l 556 329 l 704 265 l 649 178 z m 644 176 l 511 229 l 553 329 z m 508 232 l 475 271 l 547 328 l 522 264 z m 72 142 l 58 308 l 124 299 z m 256 156 l 213 217 l 256 300 z m 154 211 l 138 208 l 135 231 l 129 296 l 207 218 z m 92 160 l 75 140 l 126 290 l 135 208 z m 321 142 l 313 19 l 260 151 l 260 153 l 329 264 z m 765 61 l 650 174 l 707 263 z m 710 263 l 815 188 l 779 89 l 768 61 l 739 163 z m 331 226 l 331 22 l 315 14 l 319 83 z m 515 224 l 607 188 l 646 172 l 646 154 l 647 79 z m 68 22 l 69 25 l 138 206 l 207 214 z m 621 51 l 519 214 l 532 200 l 646 75 z m 176 82 l 211 213 l 256 151 z m 172 78 l 68 17 l 207 207 z m 64 24 l 72 131 l 131 197 z m 818 186 l 889 128 l 850 106 l 771 60 l 781 88 z m 721 65 l 650 76 l 650 169 l 653 167 l 763 58 z m 267 122 l 310 15 l 226 68 l 257 144 z m 236 101 l 224 69 l 213 72 l 178 78 l 253 144 z m 890 125 l 899 97 l 813 71 l 782 61 z m 889 81 l 835 4 l 772 56 l 897 92 z m 839 4 l 888 72 l 899 89 l 904 8 z m 954 8 l 908 8 l 907 22 l 903 88 z m 199 13 l 68 13 l 174 74 l 179 61 z m 239 46 l 253 29 l 182 74 l 199 71 l 224 65 z m 717 32 l 669 10 l 651 72 l 761 56 z m 203 13 l 178 71 l 257 22 z m 665 11 l 624 49 l 625 50 l 649 71 z m 294 21 l 306 14 l 264 22 l 233 58 z m 831 4 l 675 8 l 717 29 l 768 53 l 813 19 z "},"l":{"ha":861,"x_min":0,"x_max":0,"o":"m 806 165 l 796 222 l 794 224 l 763 250 b 760 250 761 250 761 251 l 510 232 l 389 250 b 388 250 389 250 388 250 b 386 250 388 250 388 250 l 353 238 l 353 371 l 342 538 l 361 649 b 361 650 361 649 363 650 b 361 651 363 650 361 651 l 347 697 l 347 836 l 343 943 b 342 944 343 944 343 944 l 294 958 b 293 958 294 958 294 958 l 292 960 l 113 950 b 111 949 111 950 111 950 l 92 924 l 90 922 b 89 921 90 921 89 921 l 79 800 b 79 799 79 800 79 799 l 89 765 l 89 719 l 88 501 b 89 500 88 500 88 500 l 74 436 b 74 435 74 436 74 436 l 90 343 l 56 213 l 56 211 l 69 188 l 60 31 b 61 28 60 29 61 29 l 107 10 l 247 0 l 282 10 l 326 10 l 518 0 l 631 21 l 704 10 l 706 10 l 794 10 b 796 13 796 10 796 11 l 796 63 z m 303 940 l 296 956 l 340 942 l 343 847 z m 131 938 l 290 956 l 300 876 z m 117 947 l 228 953 l 124 940 z m 342 843 l 304 875 l 296 947 z m 99 926 l 113 946 l 119 939 l 117 938 z m 296 875 l 156 865 l 126 936 z m 122 936 l 150 871 l 94 919 z m 82 803 l 93 917 l 153 864 z m 343 747 l 160 863 l 301 872 z m 344 753 l 307 867 l 344 835 z m 154 861 l 179 829 l 229 765 l 142 786 l 85 800 z m 167 851 l 161 858 l 338 746 l 235 764 z m 88 796 l 226 761 l 201 751 l 165 736 z m 93 768 l 83 794 l 151 742 z m 93 722 l 93 764 l 160 735 z m 282 711 l 172 735 l 235 760 l 333 701 z m 344 742 l 344 699 l 243 758 z m 100 719 l 164 732 l 174 708 l 101 719 z m 169 728 l 168 732 l 317 700 l 178 707 z m 175 704 l 189 664 l 201 628 l 97 717 z m 201 622 l 138 551 l 94 714 z m 271 658 l 206 624 l 197 650 l 179 704 l 339 694 z m 93 704 l 135 549 l 133 546 l 92 504 z m 310 636 l 261 550 l 235 586 l 207 621 l 271 656 l 342 692 z m 346 692 l 358 651 l 271 560 z m 357 644 l 339 540 l 265 549 z m 242 571 l 258 547 l 153 469 l 172 522 l 206 618 z m 151 561 l 200 614 l 149 472 l 139 547 z m 263 546 l 336 536 l 251 424 l 260 521 z m 253 482 l 247 419 l 151 464 l 204 504 l 258 543 z m 136 540 l 146 465 l 81 440 z m 79 446 l 92 500 l 128 536 l 106 493 z m 335 529 l 322 471 l 304 392 l 253 417 l 310 496 z m 339 526 l 349 374 l 307 390 z m 136 388 l 79 435 l 96 442 l 147 461 l 231 314 z m 236 311 l 194 385 l 153 460 l 247 415 z m 78 432 l 231 308 l 93 344 z m 251 414 l 303 389 l 240 311 l 247 379 z m 349 250 l 321 343 l 308 386 l 315 383 l 349 368 z m 276 283 l 240 306 l 306 385 l 347 240 z m 192 238 l 97 339 l 236 303 z m 60 214 l 93 339 l 189 236 z m 196 236 l 231 290 l 239 303 l 300 236 z m 249 297 l 344 236 l 306 236 z m 388 247 l 486 169 l 354 235 z m 522 229 l 753 247 l 658 201 z m 761 247 l 790 222 l 671 203 z m 394 246 l 507 228 l 499 164 z m 193 233 l 292 233 l 161 201 z m 347 233 l 231 108 l 257 154 l 306 233 z m 157 196 l 299 232 l 167 72 z m 186 231 l 156 200 l 154 200 l 83 192 z m 60 210 l 175 231 l 71 190 z m 496 160 l 440 122 l 426 114 l 372 204 l 357 231 z m 399 151 l 422 113 l 369 96 l 343 88 l 344 115 l 353 229 z m 224 96 l 329 210 l 346 229 l 313 78 z m 517 226 l 656 199 l 629 153 z m 506 194 l 511 226 l 621 153 l 501 163 z m 664 199 l 792 219 l 742 143 l 715 161 z m 793 217 l 801 167 l 746 144 z m 185 79 l 171 72 l 226 139 l 289 214 l 221 97 z m 340 88 l 317 79 l 344 197 l 349 211 l 342 97 z m 658 197 l 735 143 l 696 146 l 633 153 l 646 175 z m 86 86 l 74 188 l 153 196 l 90 47 z m 93 42 l 154 190 l 161 89 l 163 69 z m 79 38 l 64 33 l 72 168 l 76 136 l 88 40 z m 801 163 l 793 69 l 744 140 l 788 157 z m 479 96 l 429 111 l 500 158 l 576 67 z m 504 158 l 628 149 l 583 64 z m 736 139 l 588 65 l 632 149 z m 740 35 l 708 17 l 717 44 l 743 136 l 775 89 l 792 65 z m 629 24 l 586 61 l 735 135 z m 635 24 l 738 133 l 704 14 z m 333 14 l 425 108 l 476 68 l 494 53 z m 433 107 l 575 63 l 501 53 z m 331 17 l 343 85 l 418 107 z m 168 67 l 218 93 l 246 7 z m 250 6 l 224 92 l 267 85 l 311 75 l 281 40 z m 324 35 l 315 75 l 339 83 l 328 19 z m 325 13 l 283 13 l 299 43 l 313 71 z m 243 4 l 113 13 l 163 64 z m 254 6 l 306 64 l 279 13 z m 158 63 l 108 14 l 93 39 l 146 58 z m 793 61 l 793 14 l 711 14 z m 511 51 l 583 60 l 625 25 z m 504 35 l 515 4 l 339 13 l 499 50 z m 622 22 l 519 4 l 506 40 l 503 49 z m 104 15 l 67 29 l 69 31 l 89 38 z "},"m":{"ha":1140,"x_min":0,"x_max":0,"o":"m 1047 264 l 1085 403 l 1047 581 l 1065 690 l 1065 692 l 1065 775 l 1065 776 l 1056 842 l 1056 943 b 1056 944 1057 943 1057 943 b 1054 944 1056 944 1056 946 b 1053 944 1054 946 1054 944 l 961 926 l 917 944 b 915 944 915 944 915 944 l 799 954 l 742 889 b 740 888 740 889 740 888 l 685 763 l 667 754 l 619 646 l 603 633 b 601 632 603 633 601 633 l 569 583 l 478 744 l 422 804 b 422 806 422 804 422 806 l 375 896 b 376 897 376 897 376 897 l 375 899 l 329 944 b 328 944 328 944 328 944 l 326 944 l 211 926 l 143 944 b 142 944 142 944 142 944 b 140 944 140 944 140 944 l 139 944 l 65 917 l 65 915 l 56 729 l 83 450 l 56 338 l 65 225 l 75 169 l 74 1 b 75 0 74 1 75 0 l 76 0 l 168 19 l 214 0 b 217 0 215 0 217 0 l 332 10 l 333 10 l 369 10 b 371 11 371 10 371 11 l 367 96 l 319 272 l 329 401 l 329 403 l 339 500 l 325 524 l 328 543 l 353 503 l 410 393 l 411 392 l 493 300 l 494 299 l 558 240 l 558 239 b 561 238 560 239 560 238 l 603 238 l 604 239 l 697 346 l 729 429 b 729 431 729 429 729 429 b 731 432 731 431 731 432 l 793 525 l 811 474 b 811 472 811 472 810 472 l 792 282 l 801 49 l 801 47 l 801 11 b 801 10 801 11 801 10 b 803 10 803 10 803 10 l 804 10 l 919 19 l 989 0 l 1064 19 b 1065 21 1065 19 1065 19 l 1075 207 l 1075 208 z m 911 942 l 867 885 l 822 826 l 807 910 l 800 951 z m 797 949 l 808 888 l 818 826 l 744 888 z m 144 942 l 208 924 l 183 846 z m 324 942 l 283 889 l 244 835 l 222 894 l 213 924 z m 958 924 l 938 881 l 917 840 l 917 942 z m 964 924 l 1050 942 l 1010 889 l 989 863 l 983 875 z m 328 942 l 371 897 l 249 836 z m 60 740 l 68 914 l 138 939 z m 1029 911 l 1053 939 l 1053 843 l 1032 849 l 992 861 z m 60 729 l 139 932 l 149 667 z m 913 833 l 861 807 l 913 933 z m 146 844 l 143 932 l 182 840 l 158 719 l 151 679 z m 847 853 l 907 931 l 881 863 l 857 807 l 824 822 z m 988 861 l 919 835 l 961 921 z m 199 882 l 211 919 l 213 915 l 242 833 l 186 843 z m 418 804 l 331 735 l 375 893 z m 369 893 l 192 554 l 210 650 l 246 831 z m 326 731 l 199 560 l 368 882 z m 765 844 l 747 881 l 818 822 l 785 807 z m 761 843 l 781 804 l 772 799 l 739 779 l 744 879 z m 739 878 l 736 778 l 689 765 z m 1029 846 l 1051 840 l 974 763 l 990 857 z m 981 818 l 969 761 l 935 807 l 917 831 l 988 857 z m 185 839 l 240 831 l 154 676 z m 1053 838 l 1063 778 l 994 747 l 943 726 l 972 756 z m 892 803 l 914 829 l 947 786 l 968 758 l 826 722 z m 860 801 l 908 826 l 828 729 z m 153 664 l 239 821 l 188 550 z m 856 803 l 789 718 l 822 819 z m 803 811 l 818 818 l 786 721 l 786 803 z m 740 775 l 782 801 l 782 717 l 750 760 z m 422 800 l 475 743 l 418 656 l 421 738 z m 329 728 l 417 799 l 329 557 z m 414 650 l 332 556 l 354 615 l 418 792 z m 851 790 l 819 721 l 790 714 z m 1063 774 l 1063 694 l 940 721 z m 688 760 l 735 772 l 683 625 z m 733 760 l 738 771 l 790 583 l 719 603 l 683 614 z m 782 711 l 782 710 l 790 607 l 790 596 l 742 767 l 782 711 z m 685 760 l 685 753 l 681 640 l 669 751 z m 965 754 l 932 721 l 835 721 z m 667 746 l 679 615 l 624 646 z m 476 740 l 565 585 l 419 650 z m 60 725 l 114 688 l 149 663 l 86 458 z m 326 549 l 192 544 l 326 724 z m 797 586 l 824 718 l 929 718 z m 786 708 l 819 717 l 794 596 z m 1063 690 l 1044 583 l 979 664 l 938 717 z m 875 596 l 800 583 l 929 713 l 908 642 l 894 600 z m 1017 614 l 1042 582 l 1003 572 l 963 564 l 936 713 z m 960 564 l 947 571 l 899 600 l 933 713 z m 106 469 l 89 454 l 150 658 l 165 610 l 186 544 z m 333 550 l 369 592 l 415 646 l 433 563 z m 564 581 l 479 558 l 422 646 z m 607 632 l 621 643 l 667 619 l 671 617 l 667 618 z m 449 561 l 436 563 l 428 600 l 419 642 l 446 603 l 474 558 z m 629 624 l 679 611 l 626 471 l 618 447 l 608 578 l 604 629 z m 601 626 l 614 454 l 601 490 l 572 579 z m 735 542 l 679 504 l 682 585 l 683 610 l 789 579 z m 679 601 l 675 501 l 621 447 z m 897 596 l 958 561 l 818 478 z m 796 578 l 850 589 l 892 596 l 832 506 l 813 478 z m 614 446 l 482 556 l 540 571 l 568 578 z m 1015 442 l 819 474 l 1043 576 z m 792 529 l 708 475 l 792 575 z m 989 565 l 1026 574 l 842 489 l 963 560 z m 1081 406 l 1019 440 l 1046 572 z m 785 572 l 700 471 l 690 486 l 679 500 z m 438 558 l 476 556 l 475 542 l 471 463 z m 354 507 l 331 546 l 428 558 z m 410 400 l 356 503 l 432 557 l 419 467 z m 807 493 l 796 529 l 796 557 l 804 514 z m 469 454 l 415 400 l 436 553 z m 610 442 l 474 456 l 475 481 l 479 553 z m 322 546 l 253 503 l 193 542 z m 325 544 l 321 525 l 265 507 z m 88 449 l 186 539 l 186 269 z m 225 392 l 190 539 l 251 500 l 236 440 z m 189 274 l 189 529 l 201 478 l 224 385 z m 728 433 l 715 451 l 703 468 l 788 522 z m 333 503 l 265 503 l 322 522 z m 335 499 l 328 408 l 257 499 z m 690 479 l 696 469 l 624 444 l 676 499 z m 276 396 l 228 386 l 254 497 l 324 404 z m 979 304 l 818 469 l 1015 439 z m 699 465 l 697 419 l 694 351 l 621 439 z m 826 397 l 815 464 l 913 282 l 851 247 z m 853 401 l 819 464 l 976 301 l 935 289 l 915 283 z m 697 358 l 700 432 l 701 463 l 725 429 z m 796 282 l 813 460 l 832 338 l 847 249 z m 611 439 l 525 388 l 476 453 z m 519 386 l 415 394 l 472 451 l 488 429 z m 60 339 l 86 444 l 135 356 l 183 267 z m 1081 401 l 1046 272 l 1019 438 l 1032 431 z m 606 408 l 560 249 l 556 264 l 525 383 l 614 436 z m 693 347 l 604 244 l 611 354 l 618 436 z m 982 301 l 1017 431 l 1042 267 z m 564 242 l 596 358 l 614 424 l 601 242 z m 300 396 l 322 400 l 192 269 l 226 382 z m 325 393 l 317 274 l 300 271 l 265 265 l 281 297 z m 261 265 l 192 265 l 321 393 z m 415 392 l 519 382 l 494 303 z m 557 244 l 497 301 l 510 340 l 524 378 z m 68 228 l 60 335 l 183 264 l 97 238 z m 976 178 l 917 281 l 936 286 l 976 297 z m 982 175 l 982 297 l 1043 263 z m 804 60 l 796 279 l 814 267 l 847 243 l 808 75 z m 851 243 l 911 278 l 864 178 l 810 67 z m 917 275 l 978 169 l 890 74 z m 281 264 l 315 271 l 272 160 l 264 261 z m 838 58 l 806 51 l 910 268 l 885 69 z m 307 236 l 317 264 l 317 144 l 275 153 z m 260 261 l 246 217 l 217 132 l 211 158 l 190 261 z m 319 260 l 361 100 l 319 143 z m 1071 208 l 985 174 l 1044 260 z m 78 174 l 68 224 l 179 258 l 146 229 z m 140 221 l 185 257 l 172 221 l 140 117 l 79 169 z m 168 196 l 188 257 l 213 125 l 143 115 z m 269 153 l 219 128 l 261 254 z m 1007 50 l 990 10 l 983 142 l 982 168 l 1071 204 z m 1071 197 l 1063 22 l 992 4 l 1039 121 z m 78 8 l 78 165 l 139 114 z m 892 69 l 961 146 l 976 163 l 958 101 l 947 60 z m 949 58 l 972 139 l 978 157 l 988 7 z m 242 40 l 221 13 l 272 149 l 314 140 z m 217 11 l 218 108 l 218 122 l 269 147 l 251 101 z m 219 4 l 268 71 l 317 136 l 328 44 l 331 13 z m 367 24 l 324 133 l 364 94 z m 367 13 l 333 13 l 321 131 z m 169 25 l 143 113 l 213 121 z m 171 21 l 199 83 l 214 115 l 214 4 z m 167 22 l 79 4 l 140 108 z m 811 14 l 888 65 l 907 38 l 917 22 z m 910 38 l 890 65 l 922 60 l 944 57 l 932 40 l 919 24 z m 804 14 l 804 47 l 878 64 l 844 40 z m 985 4 l 922 22 l 947 56 l 960 39 z "},"n":{"ha":1028,"x_min":0,"x_max":0,"o":"m 972 96 l 944 300 l 963 392 b 963 394 963 393 963 394 l 957 431 l 967 686 b 967 688 967 686 968 688 b 967 689 967 688 967 689 l 953 779 b 953 781 954 779 953 781 l 968 853 l 968 854 l 958 943 b 957 944 958 944 958 944 l 907 954 b 906 954 907 954 906 954 l 757 936 l 706 954 b 704 954 706 954 704 954 l 703 953 l 718 836 b 718 835 717 836 718 835 l 699 725 l 699 724 l 718 650 l 703 431 l 683 478 l 683 479 l 604 581 b 603 582 604 582 604 582 l 543 674 l 543 675 l 468 731 l 328 929 l 325 935 l 324 936 l 272 946 l 160 954 b 158 954 158 954 158 954 l 85 944 b 83 943 83 944 83 943 l 56 885 b 56 883 56 885 56 883 l 85 678 l 93 567 l 69 493 b 69 492 69 492 69 492 b 69 490 69 492 69 490 l 97 338 l 74 199 b 74 197 74 199 74 199 l 88 49 b 89 49 88 49 88 49 l 79 17 b 79 15 79 15 79 15 l 81 14 l 140 14 l 271 6 l 340 6 b 343 6 342 6 342 6 l 311 161 l 339 310 l 339 385 l 333 533 l 392 444 l 392 443 l 447 401 l 517 263 l 518 261 l 521 260 l 657 122 l 718 11 l 719 11 l 754 6 l 756 6 l 850 4 l 961 14 b 963 15 963 14 963 15 l 972 94 z m 90 942 l 158 951 l 176 901 l 182 888 z m 267 943 l 260 938 l 186 886 l 174 918 l 161 951 z m 760 933 l 899 950 l 801 876 l 800 878 l 794 885 z m 910 950 l 956 942 l 964 861 l 961 867 z m 925 918 l 963 856 l 807 875 l 906 950 z m 721 839 l 707 949 l 799 874 z m 763 907 l 714 949 l 754 933 l 790 885 z m 315 933 l 197 889 l 272 942 z m 88 940 l 100 932 l 183 882 l 121 803 l 104 871 z m 60 883 l 85 938 l 115 808 z m 233 899 l 321 931 l 326 849 l 335 724 l 189 882 z m 475 589 l 339 721 l 326 922 z m 333 915 l 465 729 l 478 592 l 415 731 z m 211 757 l 178 772 l 188 878 l 229 803 l 269 729 z m 174 774 l 122 800 l 185 876 l 178 808 z m 88 688 l 60 876 l 118 799 z m 722 836 l 800 871 l 794 826 l 789 783 l 756 808 z m 196 871 l 332 722 l 276 726 z m 964 853 l 950 782 l 811 869 z m 832 764 l 793 781 l 803 868 l 893 738 z m 949 779 l 900 735 l 807 868 z m 721 832 l 754 807 l 788 779 l 703 728 z m 172 771 l 90 683 l 121 796 z m 792 776 l 896 732 l 782 635 z m 778 635 l 703 724 l 768 764 l 789 776 l 785 719 z m 936 729 l 911 642 l 901 732 l 929 757 l 949 774 z m 951 772 l 964 689 l 914 636 l 921 663 z m 172 718 l 176 768 l 271 724 l 194 665 l 167 644 z m 163 643 l 90 678 l 167 760 l 174 767 l 167 693 z m 821 579 l 897 725 l 908 632 z m 821 586 l 817 578 l 782 631 l 893 725 z m 539 672 l 515 636 l 482 586 l 469 725 z m 276 722 l 333 718 l 310 682 l 288 646 l 281 692 z m 193 660 l 271 719 l 219 569 l 167 640 z m 224 574 l 233 604 l 274 717 l 285 642 z m 721 651 l 704 717 l 774 635 l 750 642 z m 339 715 l 469 589 l 343 660 b 343 661 343 661 343 661 z m 290 643 l 335 714 l 340 661 z m 964 683 l 954 443 l 913 631 z m 89 675 l 161 640 l 96 569 z m 542 671 l 600 582 l 485 582 z m 424 565 l 333 540 l 338 599 l 343 657 l 476 581 z m 338 625 l 331 544 l 303 607 l 289 639 l 324 651 l 340 657 z m 707 433 l 721 647 l 776 629 l 744 538 z m 307 589 l 329 540 l 275 554 l 222 567 l 286 638 z m 135 590 l 164 638 l 190 603 l 217 567 l 76 496 z m 947 461 l 953 436 l 819 574 l 910 628 z m 749 536 l 781 626 l 815 575 l 713 435 z m 76 503 l 96 564 l 151 625 z m 600 578 l 556 485 l 521 532 l 485 578 z m 338 538 l 478 576 l 465 510 z m 678 479 l 560 483 l 603 576 z m 528 517 l 551 485 l 469 510 l 482 575 z m 763 497 l 817 569 l 843 446 l 710 425 z m 819 569 l 951 432 l 846 446 z m 326 538 l 169 482 l 221 564 z m 122 515 l 214 561 l 164 479 l 78 492 z m 393 447 l 336 536 l 464 507 z m 193 397 l 167 476 l 325 533 z m 335 386 l 269 338 l 251 324 l 331 531 z m 326 531 l 306 475 l 247 324 l 194 393 l 267 468 z m 553 481 l 451 407 l 458 447 l 469 506 l 522 489 z m 447 406 l 396 444 l 464 503 l 454 444 z m 189 400 l 78 489 l 164 476 l 178 436 z m 75 486 l 190 394 l 160 360 l 128 324 z m 681 476 l 701 425 l 568 479 z m 518 269 l 451 403 l 486 428 l 553 478 z m 657 311 l 561 476 l 703 421 l 676 278 z m 674 274 l 521 265 l 557 475 l 601 399 z m 100 339 l 78 468 l 124 324 z m 811 386 l 846 443 l 947 431 z m 753 428 l 840 442 l 832 428 l 807 386 l 753 406 l 713 421 z m 846 313 l 811 383 l 949 426 z m 954 426 l 960 394 l 860 322 z m 725 367 l 708 418 l 806 383 l 743 313 z m 721 365 l 739 311 l 679 275 l 706 415 z m 246 319 l 219 300 l 142 240 l 194 390 z m 958 389 l 942 301 l 851 311 l 946 381 z m 128 318 l 189 386 l 164 315 l 139 243 z m 278 339 l 335 382 l 335 311 l 253 321 z m 843 310 l 806 267 l 758 215 l 803 358 l 808 379 z m 744 293 l 743 308 l 804 375 l 793 340 l 754 215 z m 79 211 l 100 335 l 106 331 l 125 318 z m 250 318 l 333 308 l 239 194 l 247 293 z m 189 214 l 142 236 l 246 315 l 236 192 z m 83 204 l 79 201 l 125 313 l 133 251 l 135 238 z m 847 307 l 939 299 l 874 214 l 836 165 l 844 279 z m 335 304 l 307 164 l 274 176 l 240 190 l 294 257 z m 732 290 l 740 304 l 749 232 l 751 208 l 667 186 z m 833 163 l 794 185 l 756 207 l 843 304 z m 676 260 l 679 271 l 736 304 l 682 218 l 667 194 z m 926 275 l 940 293 l 915 161 l 839 161 z m 943 290 l 968 101 l 918 161 l 928 210 z m 663 186 l 525 261 l 675 271 z m 657 126 l 528 256 l 661 183 z m 196 129 l 221 83 l 79 197 l 138 233 z m 183 157 l 142 232 l 236 188 l 233 161 l 225 82 z m 817 82 l 667 183 l 699 192 l 751 204 z m 822 82 l 757 203 l 832 160 z m 92 50 l 78 193 l 150 136 l 222 78 z m 228 82 l 235 151 l 239 186 l 306 160 z m 814 81 l 660 125 l 665 179 z m 911 158 l 825 81 l 833 139 l 836 158 z m 308 158 l 339 10 l 310 28 l 229 78 z m 826 76 l 917 157 l 951 43 l 958 19 z m 969 94 l 961 24 l 921 151 z m 756 10 l 663 121 l 819 75 z m 718 49 l 751 8 l 719 14 l 669 107 z m 240 53 l 268 8 l 146 17 l 226 75 z m 211 68 l 140 18 l 94 47 l 219 74 z m 954 17 l 851 8 l 826 74 z m 760 8 l 763 11 l 822 72 l 831 51 l 847 8 z m 336 8 l 272 8 l 233 69 z m 135 18 l 82 18 l 90 46 z "},"o":{"ha":1097,"x_min":0,"x_max":0,"o":"m 1042 418 l 1024 650 l 1024 682 b 1022 683 1024 683 1024 683 l 856 865 l 854 865 l 819 881 b 818 881 819 881 818 881 l 619 957 l 618 958 l 617 960 l 539 949 l 526 968 b 524 968 525 968 525 968 l 364 936 l 314 931 l 313 931 b 311 929 311 931 311 931 l 192 806 l 165 800 b 163 800 164 801 164 800 l 114 689 l 61 565 b 61 564 60 564 61 564 l 56 396 l 108 211 l 110 210 l 164 182 l 283 57 l 285 57 l 371 35 l 482 -6 l 588 -8 l 589 -8 b 590 -8 589 -8 590 -8 l 693 18 b 694 18 694 18 694 18 l 803 57 l 985 224 b 986 226 986 225 986 226 l 982 246 l 1006 279 l 1006 281 l 1042 415 b 1042 417 1042 415 1042 417 z m 397 939 l 524 965 l 535 949 z m 628 924 l 554 901 l 529 894 l 615 954 z m 550 947 l 608 954 l 528 899 l 522 894 l 539 946 z m 681 907 l 625 953 l 799 885 z m 669 913 l 672 910 l 632 924 l 621 951 z m 432 938 l 535 944 l 524 910 l 518 892 l 376 933 z m 322 929 l 364 932 l 388 917 l 404 906 z m 393 917 l 376 928 l 501 893 l 417 901 z m 194 806 l 313 926 l 372 800 z m 317 926 l 413 899 l 375 803 z m 646 914 l 671 906 l 538 893 l 631 919 z m 676 903 l 675 899 l 619 796 l 525 888 z m 663 869 l 681 901 l 710 872 l 693 858 l 628 803 z m 801 879 l 714 874 l 699 889 l 686 901 z m 518 888 l 514 861 l 499 750 l 419 897 z m 407 874 l 417 896 l 496 746 l 378 799 z m 508 801 l 521 886 l 617 793 l 501 746 z m 853 864 l 844 836 l 831 781 l 819 876 z m 803 854 l 725 871 l 814 876 z m 826 790 l 807 851 l 817 872 z m 722 838 l 715 869 l 800 851 l 729 807 z m 629 731 l 713 868 l 726 806 z m 696 856 l 706 864 l 651 774 l 625 729 l 622 779 l 622 792 z m 856 861 l 1015 688 l 832 771 l 839 801 z m 819 799 l 826 774 l 732 804 l 803 850 z m 168 799 l 190 803 l 271 724 z m 371 797 l 290 710 l 196 801 z m 731 801 l 825 769 l 783 740 l 742 713 l 738 742 z m 739 713 l 629 725 l 728 800 z m 118 690 l 165 796 l 286 708 z m 378 796 l 496 743 l 390 682 z m 364 783 l 374 794 l 386 683 l 294 707 z m 507 744 l 618 790 l 621 747 l 622 725 z m 919 588 l 743 710 l 829 767 z m 1018 650 l 924 585 l 836 760 l 835 764 z m 854 757 l 1021 681 l 1021 653 z m 318 538 l 347 617 l 390 679 l 390 681 l 500 742 l 622 722 l 725 654 l 790 522 b 790 521 790 522 790 521 l 796 426 l 753 328 l 661 263 l 661 261 l 575 222 l 497 232 l 385 297 l 306 425 l 318 535 z m 724 657 l 631 721 l 738 708 z m 121 686 l 289 706 l 314 539 z m 919 582 l 793 525 l 743 706 z m 728 654 l 740 704 l 781 560 l 786 538 z m 310 700 l 385 678 l 346 619 l 294 704 z m 301 649 l 294 699 l 343 617 l 317 543 z m 65 567 l 117 683 l 139 638 l 164 588 z m 122 681 l 306 540 l 168 588 z m 957 603 l 1019 646 l 997 526 l 926 582 z m 1021 636 l 1038 429 l 1000 524 z m 58 401 l 64 563 l 89 568 l 163 583 z m 171 583 l 314 533 l 256 421 l 251 414 z m 801 525 l 924 581 l 994 525 z m 165 575 l 197 369 l 126 394 z m 60 397 l 161 574 l 122 394 z m 183 492 l 171 574 l 250 411 l 201 371 z m 313 525 l 301 428 l 256 414 z m 992 521 l 933 474 l 801 521 z m 796 519 l 931 472 l 857 421 l 811 496 z m 983 468 l 972 469 l 939 474 l 994 518 z m 1036 424 l 1018 439 l 988 467 l 996 504 l 999 518 z m 793 517 l 833 451 l 854 419 l 818 425 l 800 428 z m 961 403 l 951 374 l 936 471 l 982 464 z m 940 429 l 949 369 l 860 418 l 897 443 l 933 469 z m 1033 419 l 1038 417 l 1025 410 l 954 371 l 986 463 z m 853 417 l 758 333 l 799 425 z m 346 353 l 375 304 l 254 410 l 271 414 l 301 424 z m 903 390 l 947 367 l 781 265 l 857 415 z m 1038 413 l 1003 285 l 989 308 l 954 365 l 992 388 z m 815 340 l 778 267 l 761 311 l 756 326 l 850 410 z m 347 261 l 203 367 l 251 408 l 283 360 z m 265 396 l 381 296 l 356 257 l 260 401 z m 61 393 l 122 392 l 210 204 z m 157 328 l 128 390 l 199 365 l 200 344 l 214 204 z m 111 214 l 61 388 l 214 194 l 183 200 z m 854 189 l 853 192 l 781 260 l 947 361 z m 979 247 l 858 190 l 951 361 z m 336 185 l 219 193 l 203 360 l 282 256 z m 257 294 l 210 357 l 354 253 l 350 236 l 339 188 z m 982 250 l 956 356 l 1001 281 z m 668 263 l 753 324 l 764 293 l 774 263 z m 383 293 l 533 160 l 358 254 z m 538 161 l 400 283 l 494 231 b 494 229 494 229 494 229 z m 772 260 l 635 157 l 664 260 z m 807 76 l 803 65 l 788 185 l 779 257 l 851 186 z m 772 256 l 689 85 l 635 153 z m 631 156 l 549 154 l 660 256 l 650 222 z m 653 256 l 550 158 l 576 219 z m 800 60 l 693 46 l 740 165 l 776 253 z m 533 156 l 342 185 l 349 218 l 357 250 z m 983 228 l 879 196 l 979 243 z m 544 156 l 508 213 l 499 228 l 572 219 z m 976 221 l 806 64 l 856 185 z m 692 54 l 690 75 l 690 81 l 757 218 z m 164 186 l 122 207 l 174 197 l 207 192 z m 278 68 l 168 182 l 217 190 z m 368 42 l 221 190 l 339 182 z m 365 40 l 286 60 l 225 182 z m 458 81 l 347 181 l 542 150 l 469 74 l 468 72 z m 476 1 l 372 38 l 343 176 l 350 168 z m 481 3 l 354 168 l 467 69 z m 504 107 l 546 150 l 625 151 l 476 78 z m 686 83 l 479 72 l 632 151 z m 493 69 l 688 79 l 688 46 z m 476 67 l 682 43 l 588 -6 z m 582 -6 l 485 -3 l 471 67 z m 788 54 l 694 22 l 692 36 l 692 42 l 747 50 z m 607 -1 l 688 42 l 692 21 l 669 15 z "},"p":{"ha":907,"x_min":0,"x_max":0,"o":"m 851 514 l 832 763 b 832 764 832 763 832 764 l 772 842 b 771 843 771 843 771 843 b 769 843 771 843 769 843 l 664 913 l 488 954 b 486 954 488 954 486 954 l 485 954 l 483 953 l 429 936 l 185 944 b 182 944 183 944 183 946 l 124 944 b 122 944 122 944 122 944 l 121 944 l 94 936 b 93 935 93 936 93 935 l 65 879 l 65 878 b 65 876 65 878 65 876 l 83 739 l 56 535 b 56 533 56 535 56 533 l 83 431 l 74 263 l 63 242 b 60 240 61 240 60 240 l 56 161 l 65 21 b 65 19 65 19 65 19 l 167 10 l 168 10 l 169 10 l 206 10 l 276 0 l 333 19 l 333 21 l 347 85 l 347 86 b 347 88 347 86 347 86 l 339 281 l 499 271 b 501 271 500 271 501 271 l 613 289 l 743 346 l 744 346 l 746 350 z m 490 950 l 660 910 l 560 813 z m 483 949 l 457 738 l 349 860 z m 475 947 l 368 875 l 429 932 l 431 932 b 432 933 431 933 432 933 z m 489 943 l 510 903 l 556 810 l 521 736 l 515 724 z m 126 942 l 181 942 l 172 901 z m 188 942 l 418 933 l 235 889 z m 74 889 l 96 933 l 117 940 z m 208 914 l 229 890 l 175 899 l 183 940 z m 171 897 l 97 828 l 124 939 z m 468 800 l 486 939 l 497 844 l 513 719 l 460 735 z m 118 938 l 93 826 l 68 878 z m 242 888 l 424 931 l 396 906 l 344 861 z m 768 840 l 610 629 l 611 636 l 665 908 z m 660 904 l 607 629 l 582 725 l 560 810 z m 229 886 l 104 828 l 175 896 z m 236 886 l 290 872 l 342 858 l 286 797 l 236 743 z m 165 853 l 233 885 l 233 742 l 99 822 z m 69 869 l 93 822 l 85 751 z m 238 739 l 343 854 l 321 718 z m 374 825 l 451 738 l 371 772 l 350 851 z m 342 739 l 326 722 l 346 851 l 368 772 z m 771 836 l 826 763 l 754 740 z m 753 739 l 618 633 l 767 833 z m 114 758 l 97 818 l 174 772 l 231 738 l 149 663 l 142 658 z m 113 700 l 88 739 l 96 813 l 128 694 l 135 667 z m 551 792 l 556 801 l 563 703 l 517 718 z m 586 700 l 601 638 l 565 701 l 561 790 z m 451 735 l 326 717 l 336 729 l 371 769 z m 793 747 l 829 758 l 815 624 l 756 736 z m 831 743 l 847 529 l 819 618 z m 331 650 l 240 735 l 321 714 z m 161 633 l 143 654 l 149 660 l 232 733 l 231 731 l 196 593 z m 326 649 l 329 646 l 307 638 l 254 619 l 251 642 l 238 732 z m 751 732 l 754 661 l 754 607 l 714 633 l 694 646 z m 457 732 l 513 715 l 563 700 l 606 621 l 578 507 l 479 474 l 329 483 l 333 643 l 333 644 b 333 646 333 646 333 646 l 325 714 z m 767 707 l 814 619 l 781 611 l 758 606 l 757 642 l 754 731 z m 89 729 l 139 654 l 126 613 l 122 596 z m 690 647 l 615 626 l 746 729 z m 214 647 l 233 728 l 249 636 l 251 618 l 225 604 l 200 593 z m 60 539 l 86 728 l 121 590 z m 136 629 l 142 651 l 158 631 l 193 590 l 125 590 z m 582 513 l 608 621 l 686 642 z m 733 615 l 753 603 l 725 554 l 710 529 l 701 585 l 693 642 z m 318 626 l 264 539 l 257 597 l 254 615 l 328 642 z m 593 496 l 582 506 l 688 639 l 674 506 l 667 439 z m 301 593 l 331 639 l 326 486 l 265 533 z m 685 574 l 692 629 l 708 525 l 671 446 z m 746 365 l 757 579 l 758 601 l 778 606 l 815 614 z m 260 539 l 200 589 l 251 614 z m 749 360 l 817 611 l 849 515 z m 711 524 l 754 594 l 742 364 z m 124 588 l 193 588 l 89 440 z m 199 585 l 213 574 l 260 532 l 225 367 z m 85 438 l 58 532 l 119 583 z m 222 364 l 161 469 l 196 581 z m 158 469 l 90 435 l 193 581 l 182 544 z m 228 365 l 263 529 l 297 464 z m 300 467 l 268 526 l 324 482 z m 669 436 l 690 481 l 708 518 l 739 354 z m 571 489 l 554 447 l 483 472 l 576 503 z m 635 354 l 613 299 l 600 382 l 582 501 l 607 481 l 665 435 z m 600 326 l 557 444 l 579 499 l 607 311 z m 476 471 l 467 375 l 333 481 z m 328 458 l 333 357 l 301 463 l 326 479 z m 333 410 l 329 478 l 461 372 l 339 340 z m 469 376 l 481 469 l 553 444 z m 88 431 l 158 465 l 163 419 l 175 308 z m 169 400 l 163 460 l 224 357 l 179 306 z m 317 400 l 333 340 l 281 349 l 228 358 l 251 392 l 299 458 z m 550 282 l 503 275 l 551 426 l 556 440 l 565 413 l 608 293 z m 485 325 l 469 369 l 553 439 l 526 360 l 500 278 z m 615 294 l 668 432 l 739 347 z m 78 265 l 86 425 l 175 301 z m 497 274 l 342 283 l 465 368 z m 457 367 l 339 285 l 339 336 z m 215 342 l 225 354 l 329 338 l 183 303 z m 272 261 l 251 238 l 182 300 l 332 335 z m 335 333 l 335 282 l 281 251 l 260 240 z m 186 292 l 250 236 l 154 200 l 181 297 z m 60 165 l 64 239 l 171 294 z m 119 229 l 175 293 l 149 199 l 114 185 l 64 165 z m 67 244 l 76 261 l 154 289 z m 332 276 l 219 104 l 254 233 z m 333 274 l 314 135 l 307 79 l 263 88 l 218 97 z m 344 88 l 311 79 l 336 263 z m 249 232 l 161 74 l 153 196 z m 247 219 l 214 97 l 164 71 z m 60 158 l 126 186 l 147 194 l 107 75 l 94 36 z m 97 35 l 149 188 l 158 68 z m 68 24 l 60 144 l 64 128 l 92 31 z m 163 67 l 213 93 l 204 17 z m 231 28 l 208 14 l 214 67 l 217 93 l 303 76 z m 344 83 l 332 26 l 311 75 z m 279 4 l 308 72 l 314 61 l 329 22 z m 286 29 l 275 4 l 211 13 l 304 71 z m 119 25 l 99 31 l 119 43 l 158 64 l 167 14 z m 203 13 l 171 13 l 163 61 z m 143 15 l 75 22 l 94 28 z "},"q":{"ha":1126,"x_min":0,"x_max":0,"o":"m 1042 171 l 976 199 l 1051 356 l 1051 506 l 1065 550 b 1065 551 1065 551 1065 551 l 1065 553 l 992 719 b 990 721 990 721 990 721 l 903 808 l 851 897 b 850 899 851 899 851 899 l 797 914 b 796 915 796 915 796 915 l 657 954 l 564 964 b 561 964 563 964 563 964 l 501 958 l 464 968 b 463 968 463 968 463 968 l 461 968 l 299 893 b 297 893 299 894 297 894 b 296 892 296 893 296 893 l 150 772 l 149 772 l 69 576 l 56 563 l 56 561 l 65 342 b 67 340 65 342 65 340 l 97 310 l 144 179 l 144 178 l 210 125 l 335 40 b 336 39 335 39 336 39 l 382 10 l 383 8 l 571 -8 b 572 -8 571 -8 571 -8 l 682 10 l 711 6 b 713 6 711 6 713 6 l 714 6 l 844 78 l 876 31 b 878 28 876 29 876 28 l 950 -26 b 951 -28 950 -28 950 -28 b 953 -28 953 -28 953 -28 l 954 -26 l 954 -24 l 1069 113 b 1069 115 1071 114 1071 114 z m 467 964 l 499 956 l 544 844 z m 301 892 l 457 963 l 383 839 z m 454 833 l 464 961 l 553 824 l 458 719 l 446 706 z m 561 961 l 554 833 l 503 956 z m 568 960 l 654 951 l 678 828 l 633 881 z m 460 958 l 443 708 l 385 836 z m 560 858 l 564 958 l 676 824 l 558 825 z m 793 911 l 782 860 l 664 949 z m 676 854 l 658 949 l 693 922 l 779 858 l 751 849 l 682 824 z m 801 910 l 849 896 l 893 818 z m 796 907 l 810 867 l 838 788 l 785 858 z m 899 808 l 846 776 l 801 906 z m 157 775 l 297 890 l 378 838 z m 683 821 l 781 854 l 751 775 l 722 696 l 719 703 z m 807 824 l 843 775 l 726 696 l 785 854 z m 442 703 l 354 672 l 311 658 l 383 832 z m 369 831 l 211 742 l 156 771 z m 375 829 l 242 669 l 214 739 z m 378 828 l 369 804 l 308 658 l 246 667 z m 676 819 l 601 735 l 560 821 z m 715 707 l 719 694 l 604 733 l 681 818 z m 543 772 l 557 817 l 585 763 l 599 733 l 528 725 z m 504 764 l 551 815 l 524 724 l 450 704 z m 981 725 l 849 775 l 861 783 l 900 807 z m 846 771 l 958 665 l 842 638 l 843 669 z m 840 690 l 838 638 l 726 692 l 765 718 l 843 771 z m 146 724 l 151 768 l 181 753 l 208 739 l 169 649 l 126 551 z m 938 738 l 982 721 l 951 715 l 943 714 l 863 765 z m 954 681 l 957 672 l 886 738 l 858 764 l 940 711 z m 74 576 l 147 760 l 121 539 l 101 554 z m 139 569 l 211 735 l 221 710 l 239 665 l 171 590 l 128 544 z m 721 690 l 789 585 l 804 464 l 788 378 l 743 404 l 679 490 b 679 492 679 490 679 492 l 678 492 b 676 492 678 493 676 493 l 675 492 l 649 488 l 597 436 b 596 435 596 436 596 435 l 532 381 b 531 381 532 382 532 381 l 522 347 b 522 346 521 347 522 346 l 640 232 l 492 222 l 385 288 b 383 289 385 289 383 289 l 338 356 l 313 481 l 357 626 l 446 700 l 525 721 l 600 731 z m 963 669 l 944 711 l 958 714 l 986 718 z m 1058 561 l 965 665 l 988 713 l 989 717 z m 354 629 l 322 649 l 313 656 l 436 697 z m 726 688 l 783 661 l 838 635 l 790 589 z m 306 654 l 261 485 l 243 663 z m 960 642 l 958 621 l 865 632 l 849 635 l 960 663 z m 986 636 l 1054 560 l 961 619 l 961 629 l 964 661 z m 125 536 l 239 660 l 228 603 l 197 443 z m 217 532 l 240 653 l 257 475 l 210 447 l 200 442 z m 319 517 l 313 492 l 310 617 l 310 653 l 353 626 z m 308 501 l 310 483 l 272 476 l 263 475 l 296 606 l 307 644 z m 950 618 l 796 589 l 840 633 z m 944 599 l 919 564 l 799 586 l 956 615 z m 1003 539 l 922 563 l 960 615 z m 1008 538 l 983 582 l 967 613 l 1060 553 z m 821 544 l 794 583 l 917 560 l 858 493 z m 793 578 l 840 513 l 856 490 l 808 467 z m 60 563 l 71 574 l 113 542 z m 68 353 l 58 558 l 121 535 l 71 361 z m 983 500 l 963 467 l 924 558 l 1004 535 z m 939 511 l 960 465 l 910 478 l 861 490 l 914 551 l 919 558 z m 1000 497 l 971 472 l 978 483 l 1008 535 l 1031 540 l 1057 549 z m 1061 547 l 1049 507 l 975 471 l 1032 521 z m 125 531 l 196 438 l 103 318 z m 97 313 l 68 343 l 88 411 l 118 515 l 106 389 z m 965 463 l 1049 503 l 1049 361 z m 647 471 l 613 447 l 650 485 l 671 488 z m 867 426 l 860 488 l 960 461 l 885 275 z m 740 403 l 644 351 l 656 396 l 678 486 z m 792 383 l 808 463 l 849 483 l 853 486 z m 882 274 l 792 375 l 857 483 z m 614 444 l 669 483 l 636 432 l 603 436 z m 643 360 l 640 431 l 672 479 z m 278 475 l 308 479 l 308 282 l 263 472 z m 306 276 l 200 438 l 260 471 z m 335 354 l 311 275 l 311 356 l 313 465 z m 1049 356 l 976 204 l 968 363 l 964 457 z m 969 297 l 974 201 l 886 268 l 961 456 z m 632 429 l 543 386 l 599 433 l 606 432 z m 146 185 l 101 310 l 194 432 l 192 419 z m 200 269 l 200 431 l 307 267 z m 539 381 l 636 428 l 639 376 l 640 351 l 600 363 z m 196 418 l 197 268 l 149 189 z m 785 375 l 653 351 l 681 367 l 743 401 z m 525 347 l 533 376 l 631 246 z m 551 372 l 640 346 l 640 319 l 643 236 l 536 376 z m 729 363 l 785 372 l 776 360 l 718 279 l 647 346 z m 763 199 l 719 210 l 767 319 l 788 368 l 801 240 l 807 190 z m 888 175 l 854 181 l 811 189 l 792 365 z m 883 254 l 888 183 l 842 274 l 797 363 l 882 267 z m 721 276 l 781 360 l 739 265 l 718 218 z m 365 310 l 381 289 l 357 282 l 313 268 l 338 349 z m 665 246 l 646 233 l 646 278 l 644 344 l 717 278 z m 481 225 l 318 265 l 382 286 z m 656 229 l 649 231 l 682 251 l 717 274 l 715 211 z m 972 197 l 892 175 l 885 265 z m 310 263 l 363 206 l 210 265 z m 353 114 l 206 264 l 368 199 l 364 178 z m 193 144 l 149 179 l 197 263 l 204 188 l 210 131 z m 431 233 l 482 221 l 371 203 l 317 261 z m 201 260 l 321 81 l 213 128 z m 264 172 l 210 253 l 351 110 l 339 94 l 326 79 z m 556 168 l 563 172 l 646 229 l 711 208 z m 497 217 l 494 219 l 636 228 l 547 165 z m 540 167 l 381 200 l 489 219 z m 738 107 l 553 164 l 715 207 l 724 174 z m 731 157 l 719 206 l 806 185 l 742 107 z m 371 199 l 539 164 l 356 113 l 365 169 z m 1038 169 l 946 122 l 956 147 l 976 196 z m 968 193 l 850 88 l 871 129 l 892 171 z m 942 119 l 853 86 l 971 192 z m 822 172 l 814 183 l 885 172 l 839 147 z m 801 131 l 747 108 l 810 183 l 815 176 l 835 146 z m 846 88 l 840 143 l 886 168 z m 1040 167 l 1067 115 l 981 81 l 1019 138 z m 975 79 l 961 99 l 946 118 l 1035 164 z m 544 58 l 546 93 l 547 161 l 638 133 l 733 104 z m 540 58 l 390 14 l 544 160 l 542 83 z m 383 13 l 329 76 l 538 158 z m 333 81 l 357 108 l 515 153 z m 749 104 l 821 135 l 836 142 l 840 113 l 843 83 z m 228 117 l 325 75 l 333 44 z m 847 81 l 936 114 l 878 33 z m 879 31 l 928 96 l 942 114 l 946 46 l 949 -22 z m 944 114 l 951 106 l 974 75 l 953 -11 z m 976 75 l 1064 110 l 956 -19 l 961 7 z m 715 11 l 718 21 l 743 101 l 840 81 z m 549 57 l 736 100 l 681 14 z m 685 13 l 707 49 l 735 90 l 710 8 z m 374 18 l 339 42 l 331 68 z m 567 1 l 569 -6 l 393 11 l 542 56 z m 574 -6 l 560 24 l 546 54 l 674 13 z "},"r":{"ha":986,"x_min":0,"x_max":0,"o":"m 894 96 l 883 119 l 810 218 l 707 332 l 771 364 b 772 365 771 364 772 364 l 879 481 l 879 482 l 907 682 l 828 842 b 826 843 828 843 828 843 l 678 926 l 529 944 b 528 944 529 944 528 944 b 526 944 528 946 526 944 l 361 944 b 360 944 361 944 360 946 b 358 944 360 944 358 944 l 278 931 b 276 931 278 931 276 932 l 164 950 l 90 940 b 89 939 89 939 88 939 l 69 889 b 69 888 69 888 69 888 l 69 886 l 90 646 l 69 553 l 93 488 b 92 486 92 488 92 488 l 65 269 b 65 268 65 268 65 268 l 65 267 l 89 213 b 89 211 88 211 88 211 l 56 64 b 56 61 56 63 56 63 l 74 11 b 76 10 75 10 75 10 l 144 10 l 275 0 l 365 10 b 367 11 367 10 367 11 l 365 15 l 333 128 l 343 303 l 457 289 l 611 57 l 629 6 l 631 6 l 826 0 l 906 6 l 929 6 b 931 6 929 6 929 6 z m 94 938 l 163 946 l 181 899 l 188 882 z m 167 946 l 272 929 l 192 881 l 174 929 z m 367 942 l 526 942 l 511 857 z m 357 942 l 353 910 l 344 844 l 279 928 z m 531 942 l 674 924 l 639 856 l 603 785 z m 361 940 l 508 856 l 349 843 z m 597 788 l 515 854 l 529 938 z m 157 897 l 189 878 l 125 799 l 93 935 z m 74 888 l 89 933 l 121 806 z m 297 900 l 340 844 l 268 861 l 196 879 l 276 928 z m 821 842 l 715 792 l 707 824 l 681 919 l 751 881 z m 713 790 l 669 747 l 629 707 l 676 917 z m 625 710 l 604 779 l 671 908 z m 74 879 l 124 793 l 92 656 z m 196 875 l 344 839 l 343 803 l 340 728 z m 226 746 l 182 768 l 193 872 l 233 799 l 275 724 z m 189 871 l 182 804 l 179 769 l 128 794 z m 338 726 l 281 721 l 200 867 z m 346 801 l 347 839 l 507 851 l 343 729 z m 475 758 l 514 851 l 599 781 l 465 736 z m 347 726 l 508 847 l 461 735 z m 822 836 l 758 707 l 757 704 l 754 708 l 717 789 z m 824 832 l 801 626 l 758 701 z m 829 832 l 904 683 l 865 613 z m 861 610 l 824 619 l 804 624 l 826 828 z m 107 713 l 126 792 l 178 765 l 94 654 z m 713 786 l 721 719 l 735 586 l 628 701 z m 719 774 l 754 700 l 747 653 l 738 592 l 731 651 l 717 781 z m 471 735 l 513 749 l 601 778 l 613 740 l 624 703 z m 176 701 l 182 764 l 276 719 l 224 679 l 171 640 z m 94 647 l 115 675 l 176 760 l 168 638 z m 560 503 l 496 503 l 339 497 l 347 672 l 347 674 b 347 675 347 674 347 674 l 343 722 l 463 732 l 624 700 l 653 576 l 610 525 z m 282 718 l 339 722 l 292 642 z m 344 674 l 319 657 l 296 642 l 308 664 l 340 719 z m 204 592 l 172 636 l 276 714 l 224 565 z m 276 622 l 229 569 l 254 640 l 279 711 l 289 636 z m 629 696 l 733 582 l 656 576 z m 749 640 l 757 694 l 782 654 l 800 622 l 740 585 z m 903 674 l 878 496 l 865 607 z m 336 506 l 322 544 l 293 635 l 344 669 z m 129 604 l 74 557 l 93 643 l 165 635 z m 169 632 l 196 597 l 222 561 l 99 490 z m 332 501 l 333 500 l 226 561 l 289 632 z m 74 551 l 164 629 l 94 490 z m 861 607 l 839 567 l 801 497 l 803 583 l 804 619 l 838 613 z m 800 578 l 797 493 l 740 579 l 783 607 l 801 619 z m 801 490 l 835 553 l 863 601 l 875 483 z m 660 574 l 738 578 l 793 494 z m 769 371 l 660 569 l 797 488 z m 650 568 l 633 513 l 607 429 l 613 524 z m 701 339 l 607 415 l 629 489 l 653 568 l 678 454 z m 707 335 l 658 564 l 768 367 z m 331 497 l 172 475 l 225 558 z m 219 557 l 190 510 l 169 475 l 100 488 z m 607 521 l 606 488 l 603 421 l 563 500 z m 488 440 l 497 499 l 558 499 l 463 303 z m 481 499 l 463 493 l 397 475 l 350 493 l 344 494 z m 561 497 l 603 415 l 514 340 l 464 299 z m 361 365 l 344 379 l 492 497 l 471 375 l 457 294 z m 347 386 l 399 471 l 425 479 l 486 496 z m 172 472 l 331 493 l 199 392 z m 361 415 l 343 385 l 340 450 l 339 493 l 367 483 l 394 472 z m 200 389 l 331 490 l 253 318 z m 258 321 l 336 488 l 340 382 z m 874 481 l 774 371 l 775 378 l 801 486 z m 193 394 l 101 483 l 157 475 l 168 472 z m 104 451 l 97 482 l 108 472 l 194 389 l 161 350 l 132 319 z m 68 271 l 94 478 l 118 367 l 129 315 z m 700 335 l 465 294 l 604 413 z m 147 240 l 199 386 l 232 339 l 250 315 l 146 235 z m 193 382 l 143 240 l 133 314 z m 340 376 l 340 307 l 258 317 z m 453 293 l 343 307 l 343 376 z m 700 331 l 629 260 l 469 290 z m 707 258 l 635 260 l 703 328 z m 707 328 l 803 221 l 710 258 z m 315 275 l 244 190 l 254 313 l 338 303 z m 243 218 l 240 188 l 146 231 l 251 311 z m 68 267 l 126 308 l 99 239 l 90 217 z m 106 246 l 129 306 l 139 232 l 128 228 l 93 215 z m 303 158 l 244 185 l 263 207 l 336 297 z m 465 288 l 629 257 l 633 235 l 646 168 z m 306 157 l 339 288 l 331 132 z m 467 283 l 647 164 l 639 78 z m 614 60 l 475 268 l 531 203 l 638 75 z m 632 257 l 706 256 l 650 169 l 638 228 z m 711 254 l 807 215 l 779 126 l 760 63 z m 756 67 l 757 61 l 651 165 l 697 238 l 707 253 z m 213 103 l 224 82 l 93 211 l 142 229 z m 188 153 l 146 226 l 188 208 l 240 183 l 238 163 l 229 78 z m 879 119 l 763 60 l 810 213 z m 60 64 l 90 208 l 226 74 z m 285 136 l 233 78 l 243 182 l 294 158 l 301 156 z m 717 64 l 643 76 l 649 150 l 650 161 l 653 158 l 754 58 z m 311 136 l 361 14 l 235 74 l 269 114 l 304 153 z m 331 126 l 354 44 l 310 147 z m 882 117 l 890 97 l 814 74 l 779 64 z m 881 81 l 826 4 l 764 56 l 889 92 z m 831 4 l 879 72 l 890 89 l 903 8 z m 926 8 l 907 8 l 904 28 l 897 81 z m 642 72 l 753 56 l 632 10 z m 78 51 l 63 61 l 224 71 l 146 14 z m 629 14 l 615 57 l 635 68 l 639 71 l 635 50 z m 150 13 l 231 69 l 274 4 z m 278 4 l 236 68 l 358 13 z m 139 13 l 76 13 l 60 58 z m 822 4 l 639 8 l 760 54 z "},"s":{"ha":917,"x_min":0,"x_max":0,"o":"m 861 375 l 860 376 l 758 510 b 757 511 758 511 757 511 l 735 535 l 733 535 l 506 576 l 492 594 l 343 642 l 361 714 l 468 746 l 574 722 b 575 722 574 722 575 722 l 697 650 l 699 649 b 700 649 699 649 700 649 l 729 663 l 731 664 l 804 797 l 832 831 b 832 832 832 831 832 831 l 711 921 b 710 922 711 922 711 922 l 553 954 l 411 960 b 410 958 411 960 411 958 l 201 913 b 200 911 200 913 200 911 l 196 881 l 113 782 b 111 781 113 782 111 782 l 97 729 l 97 728 l 103 539 b 103 536 101 538 103 538 l 219 439 l 388 368 l 490 354 l 499 342 l 499 340 l 604 286 l 574 222 l 463 214 l 314 232 l 189 321 l 186 321 l 81 228 b 79 226 81 228 79 228 l 56 144 l 76 104 b 78 103 78 103 78 103 l 79 103 l 114 107 l 210 29 b 211 28 210 28 211 28 l 386 -4 b 388 -4 388 -4 388 -4 l 389 -4 l 556 -4 l 557 -4 l 672 28 b 674 29 674 28 674 29 l 813 131 l 846 144 l 846 146 z m 213 911 l 407 956 l 376 915 l 360 894 z m 414 956 l 547 951 l 535 939 l 442 856 l 428 906 z m 432 879 l 439 856 l 363 893 l 411 954 z m 447 856 l 551 950 l 590 879 z m 708 919 l 708 901 l 707 865 l 561 949 z m 700 865 l 593 879 l 556 947 z m 711 917 l 822 836 l 710 864 l 710 882 z m 199 881 l 203 910 l 340 893 z m 201 876 l 356 890 l 308 811 z m 435 853 l 313 811 l 361 890 z m 117 782 l 196 876 l 303 810 z m 449 851 l 588 875 l 526 814 l 457 847 z m 706 838 l 701 793 l 625 854 l 599 875 l 707 861 z m 592 875 l 608 821 l 625 768 l 531 813 z m 675 782 l 629 768 l 596 872 l 699 789 z m 825 832 l 704 790 l 707 825 l 710 861 z m 311 807 l 438 849 l 360 718 z m 365 719 l 417 806 l 442 849 l 485 778 l 425 749 z m 446 849 l 524 811 l 488 781 z m 826 828 l 801 800 l 717 792 z m 561 747 l 571 729 l 490 778 l 526 810 z m 600 746 l 575 726 l 532 807 l 624 765 z m 118 779 l 307 807 l 339 644 z m 729 668 l 704 788 l 800 797 z m 342 649 l 333 693 l 314 797 l 358 714 z m 725 669 l 631 765 l 656 772 l 701 786 z m 117 776 l 339 640 l 231 540 z m 565 728 l 469 749 l 479 763 l 488 775 z m 101 729 l 114 775 l 215 563 z m 379 722 l 482 774 l 479 768 l 465 749 z m 694 654 l 578 725 l 597 740 l 628 763 z m 725 664 l 701 651 l 638 754 l 646 746 z m 101 722 l 226 540 l 106 540 z m 346 638 l 488 593 l 424 536 z m 344 554 l 347 513 l 233 539 l 340 636 z m 421 535 l 396 528 l 350 514 l 347 554 l 343 635 z m 490 592 l 503 576 l 436 543 l 483 585 z m 511 572 l 717 535 l 564 532 z m 522 490 l 428 533 l 504 572 z m 543 543 l 561 529 l 525 492 l 507 571 z m 108 536 l 228 536 l 218 444 z m 228 506 l 231 536 l 343 511 l 222 443 z m 732 532 l 751 513 l 596 529 z m 424 532 l 456 428 l 353 511 z m 460 426 l 426 531 l 521 488 z m 749 510 l 611 450 l 574 514 l 567 528 z m 606 451 l 526 489 l 564 526 z m 386 439 l 226 442 l 347 508 l 381 449 z m 757 507 l 856 378 l 717 400 l 738 454 z m 713 401 l 614 447 l 753 507 z m 390 439 l 356 503 l 451 425 z m 464 425 l 525 486 l 604 449 z m 613 444 l 711 397 l 654 336 z m 610 444 l 631 390 l 651 335 l 506 344 z m 519 381 l 492 358 l 461 421 l 603 444 z m 386 404 l 386 372 l 229 439 l 388 436 z m 396 435 l 457 421 l 485 364 z m 485 358 l 390 372 l 390 433 z m 500 344 l 493 356 l 583 425 z m 774 219 l 761 199 l 739 297 l 717 396 l 857 374 z m 757 200 l 656 332 l 686 365 l 713 394 z m 857 368 l 843 149 l 764 193 l 838 332 z m 508 340 l 650 332 l 607 289 z m 610 286 l 654 331 l 754 199 z m 186 315 l 192 211 l 86 226 z m 189 315 l 296 214 l 196 211 l 194 238 z m 204 306 l 311 231 l 306 222 l 300 214 z m 576 222 l 608 283 l 753 196 z m 436 214 l 304 214 l 315 229 z m 81 108 l 82 194 l 82 224 l 189 208 z m 467 211 l 574 219 l 590 115 l 503 182 z m 576 219 l 754 192 l 594 111 l 585 165 z m 76 111 l 58 144 l 79 213 l 78 147 z m 450 210 l 346 176 l 315 200 l 304 210 z m 339 178 l 211 207 l 299 210 z m 588 111 l 388 125 l 463 210 z m 426 199 l 456 208 l 383 126 l 365 150 l 349 174 z m 213 32 l 208 75 l 196 206 l 339 65 z m 208 33 l 115 110 l 142 142 l 193 206 z m 319 179 l 344 174 l 343 139 l 342 68 l 201 206 z m 83 107 l 175 190 l 113 111 z m 810 133 l 678 36 l 708 93 l 761 190 z m 672 32 l 596 108 l 757 189 z m 813 135 l 769 186 l 840 147 z m 354 160 l 382 122 l 346 71 l 346 121 l 347 169 z m 586 107 l 390 0 l 388 61 l 385 121 l 500 114 z m 346 65 l 382 118 l 385 61 l 386 3 z m 554 -1 l 394 -1 l 590 106 z m 669 31 l 558 0 l 594 106 z m 382 0 l 219 31 l 276 46 l 342 63 z "},"t":{"ha":921,"x_min":0,"x_max":0,"o":"m 879 765 l 879 767 l 865 939 b 864 940 865 939 865 940 l 818 931 l 743 950 l 742 950 l 538 938 l 310 954 l 308 954 l 236 933 b 233 933 235 935 235 935 l 151 954 b 150 954 151 954 150 954 l 149 954 l 61 938 l 61 936 l 42 889 b 42 888 42 889 42 888 l 42 886 l 60 800 l 42 711 b 42 710 42 711 42 710 l 43 708 l 188 694 l 321 714 l 331 668 l 313 549 l 313 547 l 331 310 l 303 256 b 303 254 303 254 303 254 l 303 253 l 313 86 l 290 24 l 289 22 l 289 21 b 289 19 289 21 289 19 l 290 19 l 364 0 l 365 0 l 444 10 l 446 10 l 611 10 l 613 10 b 614 11 613 10 614 10 l 586 124 l 600 296 l 586 346 l 604 397 l 604 528 b 604 529 604 528 604 529 l 581 690 l 603 722 l 835 704 b 836 704 835 704 835 704 l 838 704 l 869 718 l 879 765 z m 232 932 l 126 826 l 146 926 l 151 951 z m 242 932 l 308 951 l 360 903 z m 314 951 l 525 935 l 365 901 z m 46 892 l 63 935 l 142 950 z m 121 822 l 46 888 l 147 949 z m 810 929 l 692 900 l 700 908 l 743 946 z m 738 946 l 686 899 l 549 935 z m 819 928 l 863 938 l 875 778 l 872 788 z m 543 932 l 628 911 l 683 896 l 614 829 l 613 828 z m 369 899 l 531 932 l 440 849 z m 522 918 l 535 931 l 522 869 l 449 850 z m 525 869 l 528 885 l 539 931 l 607 829 z m 131 825 l 235 929 l 278 890 z m 282 892 l 240 929 l 353 900 z m 760 839 l 738 858 l 690 896 l 813 926 z m 847 786 l 764 838 l 817 926 l 875 769 z m 431 850 l 292 890 l 364 897 z m 756 838 l 617 826 l 686 894 l 739 851 z m 365 804 l 286 888 l 435 846 z m 282 888 l 360 804 l 238 813 z m 233 813 l 129 821 l 276 886 l 261 858 z m 46 882 l 78 856 l 119 819 l 101 814 l 63 801 z m 569 781 l 596 732 l 506 799 l 443 846 l 522 867 z m 607 800 l 601 731 l 564 797 l 528 864 l 568 844 l 610 824 z m 593 729 l 371 803 l 440 844 l 535 774 z m 756 835 l 686 774 l 617 824 z m 756 743 l 690 772 l 761 833 l 832 710 z m 856 736 l 836 710 l 767 831 l 808 806 l 875 765 z m 610 731 l 604 728 l 610 785 l 614 822 l 649 797 l 683 772 z m 171 789 l 131 818 l 232 808 l 219 786 l 207 764 z m 63 735 l 124 817 l 203 761 l 47 714 z m 46 718 l 64 797 l 90 807 l 118 817 z m 363 800 l 322 718 l 239 808 z m 317 719 l 210 761 l 222 785 l 235 808 z m 435 713 l 326 717 l 365 799 l 401 756 z m 592 725 l 440 713 l 394 769 l 371 799 z m 825 708 l 608 725 l 661 756 l 688 769 z m 199 738 l 186 699 l 53 711 l 204 758 z m 317 715 l 192 699 l 203 739 l 208 758 z m 863 740 l 875 758 l 867 721 l 842 710 z m 599 722 l 579 693 l 458 710 z m 326 714 l 436 708 l 397 607 z m 600 533 l 443 708 l 578 690 z m 333 669 l 326 707 l 388 615 z m 497 569 l 432 592 l 400 604 l 439 706 z m 596 533 l 501 568 l 444 703 z m 335 660 l 431 457 l 343 483 z m 396 603 l 429 471 l 339 658 z m 339 493 l 315 549 l 332 650 l 335 588 z m 497 539 l 489 433 l 444 515 l 401 600 l 499 564 z m 436 456 l 403 589 l 486 431 z m 601 528 l 601 404 l 504 561 z m 597 401 l 519 421 l 493 428 l 501 561 l 518 533 z m 332 335 l 317 538 l 340 482 z m 468 346 l 347 479 l 433 453 z m 435 346 l 371 358 l 344 476 l 467 340 z m 343 469 l 368 357 l 335 317 z m 474 350 l 472 344 l 438 451 l 489 425 z m 492 424 l 579 349 l 474 339 l 479 367 z m 600 397 l 583 350 l 567 364 l 499 422 z m 336 313 l 347 326 l 369 354 l 464 338 z m 596 299 l 481 336 l 583 346 z m 468 335 l 397 238 l 336 308 z m 596 294 l 583 129 l 513 265 l 476 335 z m 497 200 l 400 236 l 424 268 l 471 332 z m 476 326 l 576 132 l 501 199 z m 332 307 l 392 238 l 360 244 l 307 256 z m 396 233 l 413 175 l 432 103 l 308 251 z m 307 247 l 431 97 l 333 78 z m 444 153 l 401 232 l 499 196 l 489 74 z m 486 71 l 436 97 l 403 222 l 407 215 z m 315 88 l 308 215 l 329 79 z m 557 38 l 504 193 l 582 122 z m 521 53 l 493 68 l 501 189 l 553 35 z m 583 115 l 610 14 l 593 19 l 558 31 z m 474 50 l 446 15 l 440 63 l 436 93 l 488 67 z m 442 14 l 422 25 l 338 76 l 433 93 z m 296 32 l 314 83 l 329 76 l 318 61 z m 363 4 l 293 22 l 332 74 l 347 39 z m 367 4 l 344 53 l 336 72 l 439 13 z m 529 25 l 483 14 l 489 49 l 492 64 l 518 50 l 550 31 z m 449 13 l 478 49 l 488 61 l 488 54 l 481 13 z m 601 13 l 494 13 l 556 28 z "},"u":{"ha":1000,"x_min":0,"x_max":0,"o":"m 935 888 l 940 919 b 939 921 940 921 939 921 l 911 940 l 910 940 l 682 944 b 681 944 681 946 681 944 l 653 879 b 653 878 653 879 651 879 b 653 878 651 878 653 878 l 653 876 l 671 794 l 667 553 l 667 551 b 667 550 667 551 667 550 l 685 408 l 629 264 l 463 228 l 347 310 l 325 365 l 343 444 l 319 644 l 336 667 b 338 667 336 667 338 667 l 339 668 l 347 872 b 347 874 347 872 347 874 l 347 875 l 333 939 l 333 940 l 278 958 l 276 960 l 206 950 l 171 950 b 169 950 171 950 169 950 l 168 950 l 67 940 b 65 940 67 940 65 940 l 56 790 l 78 583 l 58 469 b 58 468 58 469 58 469 l 89 232 b 89 231 89 232 88 231 b 89 229 88 231 88 231 l 158 133 b 158 132 158 133 158 132 l 160 131 l 161 131 l 289 15 b 290 14 289 14 290 14 l 550 -8 l 551 -8 l 794 51 l 796 53 l 796 56 l 907 225 l 921 336 l 944 435 l 944 436 l 921 561 l 940 631 l 944 835 b 944 838 944 836 944 836 z m 275 956 l 286 931 l 304 889 l 211 947 z m 279 954 l 329 938 l 317 907 l 308 888 l 293 921 z m 119 935 l 167 946 l 158 894 l 149 900 l 99 929 z m 171 946 l 203 946 l 186 926 l 163 899 z m 75 938 l 147 944 l 94 931 z m 303 883 l 275 878 l 217 867 l 214 886 l 208 944 z m 204 943 l 214 867 l 163 893 z m 657 881 l 683 942 l 897 938 z m 60 806 l 68 936 l 92 928 z m 783 863 l 908 936 l 919 913 l 931 889 z m 664 879 l 900 935 l 774 861 z m 914 935 l 936 919 l 932 894 l 924 914 z m 332 933 l 344 876 l 331 879 l 311 885 z m 158 890 l 149 763 l 97 925 z m 106 889 l 147 756 l 126 764 l 60 792 l 94 924 z m 164 888 l 189 876 l 214 863 l 231 797 l 247 729 z m 174 863 l 249 718 l 153 754 l 154 781 l 161 886 z m 840 788 l 779 858 l 929 885 z m 932 883 l 940 838 l 847 790 l 871 817 z m 314 829 l 333 679 l 239 829 l 218 863 l 307 881 z m 344 872 l 336 690 l 311 881 z m 690 824 l 657 876 l 772 858 l 724 769 z m 674 796 l 657 869 l 694 810 l 718 772 z m 332 672 l 254 717 l 219 854 z m 799 682 l 794 672 l 776 853 l 838 785 z m 782 763 l 790 671 l 725 767 l 774 853 z m 942 832 l 936 633 l 797 665 z m 935 831 l 799 672 l 842 783 z m 669 565 l 674 792 l 722 765 l 699 678 z m 61 786 l 149 751 l 172 611 l 176 590 z m 81 585 l 60 782 l 176 585 z m 675 571 l 725 761 l 790 664 l 671 557 z m 210 642 l 181 588 l 164 685 l 153 750 l 250 714 z m 253 713 l 315 646 l 183 586 l 213 640 z m 335 668 l 318 647 l 263 707 l 304 685 z m 796 661 l 932 631 l 804 568 l 801 599 z m 801 568 l 674 554 l 792 660 l 797 615 z m 303 538 l 183 582 l 315 642 z m 339 457 l 307 535 l 318 632 z m 936 628 l 918 563 l 810 567 z m 63 472 l 81 581 l 175 581 z m 178 579 l 182 469 l 64 469 z m 181 579 l 335 447 l 185 469 z m 326 481 l 338 450 l 189 578 l 304 533 z m 819 421 l 804 564 l 915 560 z m 669 550 l 800 564 l 688 411 z m 800 558 l 774 456 l 690 411 z m 817 419 l 776 454 l 803 557 z m 918 557 l 940 438 l 822 419 z m 64 467 l 182 467 l 150 364 z m 318 365 l 153 363 l 183 465 z m 339 443 l 322 367 l 289 392 l 190 465 z m 63 463 l 149 361 l 90 236 z m 697 410 l 775 451 l 815 418 z m 933 432 l 857 379 l 779 325 l 785 338 l 821 415 z m 940 432 l 918 339 l 782 321 z m 690 406 l 815 414 l 775 322 z m 633 265 l 688 404 l 772 319 z m 154 360 l 318 363 l 229 288 z m 344 311 l 236 289 l 322 361 z m 94 233 l 151 358 l 228 286 z m 918 336 l 904 228 l 781 318 z m 642 265 l 775 317 l 897 229 l 639 264 z m 346 307 l 453 231 l 238 286 z m 250 222 l 97 232 l 228 285 l 240 254 z m 451 226 l 254 222 l 232 283 z m 629 260 l 638 231 l 646 200 l 540 188 l 494 182 z m 465 225 l 621 260 l 486 182 z m 863 210 l 807 186 l 642 260 l 897 225 z m 635 254 l 633 260 l 797 186 l 758 189 l 651 200 z m 93 229 l 249 219 l 161 135 z m 450 224 l 301 172 l 257 219 z m 474 201 l 483 179 l 335 107 l 461 222 z m 797 63 l 810 182 l 901 222 z m 326 103 l 303 169 l 456 221 l 328 103 z m 297 171 l 167 136 l 253 218 z m 496 179 l 649 196 l 675 151 l 688 131 z m 653 196 l 800 182 l 692 131 z m 799 118 l 792 56 l 743 92 l 694 128 l 806 181 z m 443 97 l 333 103 l 483 176 z m 579 106 l 447 97 l 486 176 z m 585 107 l 538 143 l 496 175 l 683 128 z m 169 133 l 299 168 l 322 103 z m 290 18 l 165 129 l 322 99 z m 785 57 l 592 104 l 690 126 z m 532 50 l 585 103 l 776 56 z m 451 93 l 579 103 l 554 76 l 526 50 z m 293 19 l 304 47 l 326 99 l 438 94 z m 303 19 l 443 94 l 444 93 l 524 50 z m 553 -6 l 531 47 l 781 51 z m 549 -6 l 304 17 l 526 47 z "},"v":{"ha":1047,"x_min":0,"x_max":0,"o":"m 1019 942 b 1019 943 1019 943 1019 943 b 1018 944 1019 944 1018 946 l 1017 944 l 901 926 l 749 950 l 747 950 b 746 949 746 950 746 949 l 696 847 b 694 847 694 847 694 847 l 685 753 l 643 693 l 643 692 l 592 494 l 536 390 l 536 389 l 524 347 l 460 529 l 413 658 l 414 660 b 413 660 414 660 413 660 l 413 661 l 367 804 l 367 806 l 333 910 b 333 911 335 910 333 910 l 301 940 l 300 940 l 189 944 b 188 944 188 946 188 944 l 104 950 l 103 950 l 29 936 b 28 935 28 936 28 935 l 28 933 l 65 864 l 83 733 l 196 560 l 214 431 b 214 429 214 431 214 429 l 299 286 l 299 285 l 307 175 l 372 54 b 374 53 374 54 374 53 l 410 0 b 411 0 411 0 411 0 l 546 14 l 649 -4 b 650 -4 650 -4 650 -4 l 651 -3 l 710 117 l 711 117 l 744 263 l 800 336 l 824 422 l 824 424 l 838 506 l 903 604 b 903 606 903 604 903 606 l 958 811 l 958 813 z m 103 946 l 236 803 l 35 933 z m 108 946 l 186 942 l 240 803 z m 747 946 l 781 924 l 849 879 l 699 847 z m 756 946 l 897 924 l 854 881 z m 194 942 l 296 938 l 276 915 l 267 904 z m 1014 940 l 956 815 l 858 878 z m 192 939 l 264 901 l 246 800 z m 1003 939 l 864 885 l 903 924 z m 300 936 l 329 911 l 306 908 l 271 904 l 290 925 z m 68 865 l 33 929 l 171 840 l 228 803 z m 331 908 l 361 811 l 271 900 l 315 907 z m 361 806 l 249 796 l 268 899 z m 704 846 l 853 876 l 860 853 l 871 808 z m 951 814 l 875 807 l 857 875 z m 104 819 l 72 861 l 244 793 l 189 708 z m 86 735 l 69 858 l 185 708 z m 871 804 l 815 740 l 701 843 z m 699 840 l 814 739 l 738 693 z m 689 753 l 697 835 l 733 699 z m 947 810 l 824 743 l 874 804 l 875 804 l 885 806 z m 883 701 l 850 647 l 818 738 l 951 807 z m 953 803 l 900 608 l 876 626 l 853 644 l 913 740 z m 250 792 l 363 803 l 340 706 z m 365 797 l 407 664 l 343 703 l 357 760 z m 219 750 l 246 792 l 338 703 l 192 707 z m 647 693 l 686 750 l 701 731 l 733 692 z m 811 667 l 806 576 l 781 617 l 739 689 l 814 735 z m 93 731 l 188 704 l 261 596 l 292 550 z m 825 707 l 847 644 l 813 582 l 810 579 l 814 654 l 818 729 z m 199 563 l 93 724 l 294 540 z m 326 647 l 299 543 l 192 704 l 339 700 z m 358 689 l 408 658 l 347 593 l 303 544 l 317 599 l 343 699 z m 647 690 l 735 689 l 697 569 z m 736 681 l 738 686 l 771 629 l 804 572 l 700 567 z m 672 619 l 696 565 l 679 551 l 646 524 l 646 683 z m 596 497 l 643 679 l 643 521 z m 414 390 l 301 538 l 410 656 z m 414 650 l 457 529 l 418 394 z m 883 617 l 899 606 l 839 515 l 847 593 l 851 640 z m 835 514 l 832 521 l 810 571 l 842 626 l 847 636 z m 803 568 l 676 418 l 699 564 z m 833 508 l 682 419 l 806 567 l 819 539 z m 646 518 l 685 553 l 694 561 l 686 508 l 672 422 z m 217 435 l 199 560 l 297 538 l 271 503 z m 258 483 l 300 535 l 411 388 l 218 432 z m 458 524 l 521 344 l 494 354 l 418 385 z m 585 443 l 644 517 l 658 465 l 671 414 l 543 392 z m 549 406 l 593 492 l 638 514 z m 833 504 l 821 425 l 682 414 z m 226 426 l 415 382 l 415 358 l 414 307 z m 819 422 l 743 267 l 676 410 z m 292 381 l 414 303 l 414 221 l 226 421 z m 301 288 l 226 418 l 406 225 l 385 238 z m 628 403 l 671 410 l 639 344 l 565 378 l 543 388 z m 817 408 l 797 339 l 753 281 l 783 343 z m 674 408 l 739 268 l 642 343 z m 540 386 l 638 342 l 607 249 z m 525 343 l 538 385 l 599 257 z m 422 381 l 519 342 l 506 331 l 478 311 z m 440 353 l 472 311 l 417 306 l 417 321 l 418 379 z m 496 321 l 524 340 l 599 251 l 481 310 z m 692 251 l 669 246 l 643 336 l 738 264 z m 610 246 l 640 336 l 665 246 z m 532 204 l 419 303 l 475 308 z m 604 244 l 581 226 l 540 199 l 481 306 z m 417 218 l 417 300 l 532 199 z m 311 178 l 301 283 l 413 217 z m 710 125 l 689 185 l 669 243 l 693 249 l 740 260 z m 706 126 l 611 243 l 667 243 z m 561 67 l 540 194 l 604 240 z m 608 240 l 707 119 l 564 61 l 586 151 z m 374 199 l 414 214 l 486 142 l 315 175 z m 421 214 l 536 194 l 515 168 l 493 142 z m 496 139 l 510 157 l 538 192 l 558 64 z m 318 171 l 489 139 l 413 93 z m 375 57 l 314 168 l 390 106 l 410 90 z m 418 92 l 493 136 l 556 61 z m 707 115 l 649 0 l 621 19 l 565 57 z m 414 4 l 414 89 l 554 57 z m 410 6 l 376 54 l 394 72 l 411 86 l 411 54 z m 424 4 l 558 56 l 546 17 z m 642 0 l 550 17 l 563 56 z "},"w":{"ha":1494,"x_min":0,"x_max":0,"o":"m 1467 903 l 1463 936 b 1461 938 1463 938 1463 938 l 1322 953 l 1321 953 b 1319 953 1321 953 1319 953 l 1228 944 b 1226 944 1228 946 1226 944 l 1225 944 l 1225 943 l 1193 913 l 1193 911 l 1146 704 l 1090 589 l 1050 404 l 978 610 l 978 613 l 928 800 l 876 935 b 875 936 876 936 875 936 l 815 944 l 814 944 b 813 944 813 946 813 944 l 751 950 l 674 950 l 672 949 l 639 917 l 551 668 l 550 665 l 550 664 l 503 488 l 468 407 l 446 490 l 446 492 l 399 683 l 343 790 l 329 901 l 296 942 l 226 950 l 225 950 l 140 931 l 31 944 b 28 944 29 946 29 946 l 56 799 b 57 797 56 799 56 797 l 168 611 l 158 521 b 158 519 158 521 158 519 l 186 494 l 265 258 l 279 146 l 326 63 b 326 61 325 63 325 61 l 340 15 l 378 -8 b 379 -8 378 -8 378 -8 l 381 -8 l 579 14 b 581 14 579 14 579 14 l 581 15 l 614 150 l 644 172 b 646 174 646 172 646 174 l 735 500 l 757 531 l 792 478 b 792 476 792 478 792 476 l 811 347 l 932 53 l 932 1 b 933 0 932 1 932 0 l 935 0 l 1111 6 l 1113 6 l 1144 10 l 1176 19 b 1178 21 1176 19 1178 19 l 1196 126 l 1281 294 b 1281 296 1281 296 1281 296 l 1294 421 l 1396 649 l 1397 650 l 1429 825 l 1467 900 b 1467 901 1467 900 1467 901 z m 1318 950 l 1286 757 l 1281 725 l 1229 942 z m 1335 949 l 1460 935 l 1463 904 z m 1425 826 l 1285 718 l 1322 947 z m 1463 900 l 1428 829 l 1393 868 l 1328 946 z m 222 946 l 192 850 l 189 840 l 144 928 z m 226 946 l 324 901 l 192 839 z m 676 946 l 746 946 l 704 914 l 692 904 l 681 933 z m 756 946 l 811 942 l 801 900 z m 751 946 l 797 899 l 694 903 z m 236 946 l 294 939 l 322 906 z m 643 917 l 672 946 l 686 904 z m 111 890 l 36 942 l 140 928 l 183 842 z m 807 910 l 815 942 l 868 933 l 804 900 z m 35 938 l 186 836 l 153 740 z m 1158 740 l 1196 910 l 1222 936 z m 1278 717 l 1150 704 l 1226 936 z m 58 800 l 33 933 l 79 857 l 149 740 z m 865 839 l 858 747 l 836 775 l 778 849 l 874 931 z m 876 926 l 924 800 l 863 747 l 868 814 z m 864 926 l 782 857 l 803 896 b 804 896 804 896 804 896 z m 558 681 l 640 913 l 672 904 l 686 900 z m 696 900 l 799 896 l 786 872 l 775 851 l 729 879 z m 326 899 l 340 792 l 194 836 z m 715 808 l 692 899 l 714 885 l 772 847 l 757 821 l 725 769 z m 689 753 l 689 717 l 556 667 l 688 896 z m 692 885 l 722 764 l 692 721 z m 856 746 l 726 765 l 751 806 l 775 846 z m 254 815 l 340 788 l 324 718 l 229 803 l 197 832 z m 217 728 l 193 831 l 319 717 z m 188 732 l 157 738 l 172 782 l 189 831 l 192 824 l 213 729 z m 1325 599 l 1318 617 l 1283 714 l 1424 821 z m 1424 813 l 1393 651 l 1343 610 l 1329 599 z m 925 794 l 972 619 l 863 743 z m 167 619 l 63 793 l 151 735 z m 343 781 l 394 683 l 354 615 l 349 682 z m 350 626 l 326 715 l 340 776 z m 872 604 l 729 761 l 858 742 z m 693 715 l 708 738 l 724 761 l 800 604 z m 871 600 l 808 596 l 781 654 l 733 751 z m 863 736 l 972 614 l 876 601 l 871 647 z m 156 733 l 183 729 l 213 725 l 169 621 z m 229 676 l 218 725 l 321 713 l 247 604 z m 243 601 l 171 614 l 188 657 l 215 721 z m 1096 593 l 1149 701 l 1274 713 z m 613 615 l 554 664 l 583 675 l 683 711 z m 321 603 l 321 550 l 249 600 l 322 710 z m 1263 586 l 1158 572 l 1278 708 l 1265 611 z m 757 536 l 718 642 l 694 708 l 804 594 l 764 544 z m 639 565 l 617 613 l 635 636 l 688 708 l 675 613 l 663 518 z m 1300 657 l 1321 596 l 1265 586 l 1282 706 z m 731 503 l 665 511 l 690 706 z m 1271 706 l 1153 572 l 1096 589 z m 336 663 l 350 610 l 339 585 l 325 556 l 325 611 l 326 699 z m 754 533 l 733 506 l 696 694 z m 397 678 l 440 500 l 356 610 l 374 639 z m 508 493 l 553 660 l 611 613 l 543 533 z m 1390 644 l 1297 435 l 1326 593 z m 163 525 l 171 611 l 243 599 z m 800 485 l 875 597 l 969 610 z m 508 489 l 614 610 l 660 511 z m 950 507 l 800 481 l 972 607 z m 976 607 l 1046 406 l 954 506 z m 439 494 l 325 547 l 350 603 l 353 607 z m 247 597 l 319 547 l 192 499 z m 808 592 l 871 597 l 797 485 z m 1310 524 l 1292 433 l 1285 476 l 1265 582 l 1322 592 z m 188 499 l 163 519 l 239 590 l 200 522 z m 792 483 l 758 532 l 804 588 l 799 540 z m 1118 443 l 1093 354 l 1093 586 l 1124 578 l 1153 569 z m 1276 306 l 1236 393 l 1157 569 l 1263 582 l 1267 513 z m 1051 399 l 1090 574 l 1090 347 z m 1124 331 l 1094 343 l 1154 561 l 1183 308 z m 1186 307 l 1157 560 l 1275 297 z m 1290 421 l 1279 318 l 1267 558 z m 297 449 l 192 496 l 319 544 z m 325 544 l 440 490 l 303 449 z m 728 500 l 553 393 l 664 508 z m 525 436 l 508 485 l 658 507 l 550 394 l 543 388 z m 926 342 l 797 476 l 950 503 l 940 439 z m 993 382 l 1032 267 l 929 339 l 953 497 z m 957 497 l 1049 397 l 1035 272 l 996 383 z m 663 394 l 550 386 l 728 496 z m 729 492 l 647 193 l 665 393 z m 193 490 l 350 375 l 314 288 z m 353 378 l 301 444 l 439 488 z m 203 486 l 297 444 l 343 385 z m 433 378 l 428 325 l 356 375 l 442 483 z m 469 404 l 504 482 l 539 388 l 488 400 z m 268 261 l 194 482 l 215 446 l 311 283 l 289 272 z m 446 481 l 465 403 l 438 343 l 432 332 z m 814 349 l 796 472 l 924 339 z m 451 365 l 468 401 l 536 383 l 433 326 z m 1090 342 l 1065 306 l 1040 269 l 1047 347 l 1051 393 z m 657 350 l 643 181 l 635 196 l 544 382 l 661 392 z m 492 356 l 539 381 l 461 201 l 431 322 z m 524 189 l 528 225 l 543 378 l 642 176 z m 521 189 l 464 197 l 539 374 z m 426 322 l 353 213 l 354 319 l 354 372 z m 351 367 l 350 283 l 350 214 l 315 285 z m 926 336 l 974 178 l 818 344 z m 1161 231 l 1147 186 l 1094 339 l 1117 331 l 1183 304 z m 1085 256 l 1071 76 l 1039 261 l 1090 336 z m 1146 179 l 1074 67 l 1082 186 l 1093 333 z m 968 85 l 822 333 l 976 168 l 975 151 z m 940 300 l 931 333 l 1035 261 l 978 172 z m 935 56 l 822 326 l 967 79 l 951 67 z m 446 246 l 457 197 l 354 210 l 428 318 z m 1275 294 l 1151 185 l 1186 303 z m 1274 289 l 1194 131 l 1150 179 z m 282 157 l 269 257 l 306 278 l 311 281 l 297 219 z m 314 279 l 349 208 l 285 153 z m 1063 101 l 1069 67 l 979 169 l 1003 206 l 1035 256 z m 481 93 l 483 82 l 356 206 l 458 193 z m 479 81 l 285 147 l 314 174 l 351 206 z m 490 189 l 519 185 l 486 83 l 483 94 l 463 193 z m 489 81 l 489 82 l 522 183 l 608 151 z m 639 172 l 611 153 l 533 183 l 556 182 z m 1149 176 l 1192 128 l 1078 67 z m 972 101 l 979 165 l 1067 64 l 994 76 l 971 81 z m 610 147 l 578 18 l 490 76 l 529 100 z m 285 143 l 478 78 l 328 64 z m 1124 88 l 1188 122 l 1111 10 l 1075 60 z m 1190 114 l 1175 22 l 1147 14 l 1169 64 z m 1115 8 l 1176 97 l 1185 111 l 1143 13 z m 938 6 l 971 78 l 1064 60 z m 450 50 l 381 -4 l 340 49 l 332 60 l 481 75 z m 575 17 l 385 -6 l 415 19 l 486 74 l 522 51 z m 963 72 l 965 74 l 935 10 l 935 51 z m 944 4 l 1001 29 l 1072 58 l 1108 8 z m 372 -1 l 343 17 l 332 53 z "},"x":{"ha":996,"x_min":0,"x_max":0,"o":"m 968 13 l 931 92 l 860 143 l 753 318 b 753 319 754 319 753 319 b 753 321 753 319 753 321 l 656 501 l 674 542 l 897 844 b 897 847 899 846 899 846 l 893 868 l 949 928 b 949 929 949 928 949 929 l 935 949 b 933 950 935 950 933 950 l 803 936 l 707 954 b 706 954 706 954 706 954 l 704 954 l 663 950 l 661 949 l 643 926 l 643 925 l 564 796 l 564 794 l 500 653 l 446 763 l 399 836 l 357 893 l 343 935 b 342 936 343 935 343 936 l 268 950 b 267 950 268 950 268 950 l 151 936 l 68 950 l 67 950 b 65 949 65 950 65 949 l 51 913 b 51 911 51 913 51 911 l 51 910 l 186 747 l 289 547 l 354 486 l 261 367 l 188 311 l 188 310 l 90 106 l 89 103 l 28 40 l 32 11 b 33 10 32 10 33 10 l 186 6 l 188 6 l 257 0 l 258 0 l 338 10 b 339 11 339 10 339 11 l 339 39 l 417 182 l 500 283 l 535 224 l 535 222 l 639 54 b 639 53 639 53 638 53 b 640 51 639 51 639 51 l 667 1 b 667 0 667 1 667 1 l 854 6 l 925 10 l 967 10 b 968 11 967 10 967 10 z m 769 869 l 649 925 l 704 951 z m 650 929 l 664 947 l 694 950 l 668 938 z m 710 950 l 800 933 l 774 868 z m 154 933 l 264 946 l 247 903 l 229 858 z m 254 910 l 268 946 l 338 933 l 296 904 l 235 861 z m 933 946 l 944 931 l 829 935 z m 54 913 l 68 946 l 213 863 z m 79 944 l 150 932 l 218 864 z m 804 932 l 832 911 l 886 871 l 778 867 z m 944 928 l 892 871 l 810 932 z m 340 932 l 354 893 l 239 860 z m 569 797 l 646 922 l 771 865 z m 61 907 l 228 853 l 214 786 z m 188 750 l 64 900 l 214 783 z m 356 890 l 394 839 l 293 850 l 240 856 z m 776 864 l 888 867 l 776 751 z m 894 846 l 794 765 l 890 865 z m 568 793 l 764 860 l 608 743 z m 665 782 l 769 860 l 715 724 l 647 736 l 613 742 z m 774 857 l 774 749 l 719 725 l 738 769 z m 233 853 l 393 835 l 324 740 l 293 778 z m 300 765 l 318 742 l 218 785 l 231 850 z m 863 817 l 888 836 l 682 558 l 775 746 z m 419 799 l 440 764 l 372 749 l 328 740 l 397 833 z m 542 707 l 567 790 l 578 776 l 606 740 l 524 640 z m 257 661 l 219 781 l 322 736 l 290 554 z m 283 567 l 190 747 l 215 779 z m 557 771 l 517 635 l 510 642 l 501 651 z m 443 760 l 496 654 l 383 710 l 329 738 z m 678 557 l 718 719 l 771 743 z m 713 719 l 624 613 l 615 689 l 610 739 z m 604 733 l 589 678 l 561 583 l 521 631 z m 494 650 l 390 633 l 329 733 z m 619 628 l 621 610 l 565 582 l 607 731 z m 344 588 l 326 729 l 347 696 l 386 631 l 374 576 l 356 497 z m 292 547 l 324 726 l 325 717 l 354 490 z m 672 547 l 625 608 l 714 715 z m 515 633 l 413 633 l 499 649 z m 518 629 l 557 583 l 467 610 l 403 629 z m 558 579 l 533 561 l 490 529 l 396 626 z m 394 463 l 390 624 l 482 425 l 397 397 z m 488 511 l 483 431 l 394 622 l 488 526 z m 379 586 l 386 614 l 394 404 l 357 488 z m 619 453 l 604 488 l 565 579 l 617 603 l 621 606 l 621 568 z m 654 506 l 644 538 l 626 600 l 671 542 z m 640 544 l 653 501 l 624 453 l 624 597 z m 617 449 l 493 528 l 560 576 z m 617 446 l 486 425 l 488 458 l 492 525 z m 728 276 l 624 444 l 654 497 z m 267 368 l 356 483 l 394 396 z m 750 318 l 735 267 l 732 274 l 663 481 z m 615 442 l 496 358 l 489 401 l 486 422 z m 714 292 l 729 267 l 639 304 l 582 329 l 622 440 z m 497 339 l 496 354 l 611 436 l 501 292 z m 507 293 l 571 378 l 615 435 l 578 329 z m 460 414 l 482 421 l 419 244 l 397 393 z m 425 249 l 483 415 l 492 365 l 493 356 z m 289 311 l 265 364 l 392 392 l 353 326 l 311 260 z m 369 350 l 394 390 l 417 239 l 365 247 l 314 258 z m 261 363 l 258 333 l 257 318 l 244 317 l 196 311 z m 261 317 l 264 358 l 292 294 l 306 265 z m 422 194 l 469 297 l 493 349 l 497 300 l 499 288 z m 418 193 l 421 235 l 421 236 l 482 331 z m 672 172 l 539 225 l 569 303 l 579 325 z m 583 325 l 732 261 l 693 197 l 676 172 z m 536 228 l 503 286 l 575 324 z m 256 314 l 97 114 l 190 308 z m 260 250 l 261 313 l 310 256 l 279 190 l 257 144 z m 754 311 l 857 142 l 789 64 z m 94 104 l 257 311 l 254 174 l 254 139 z m 769 178 l 782 88 l 736 261 l 742 282 l 751 310 z m 785 65 l 678 169 l 718 233 l 733 257 z m 414 236 l 260 143 l 313 254 z m 414 185 l 268 143 l 418 233 l 415 201 z m 674 168 l 668 99 l 667 83 l 543 219 z m 546 210 l 665 79 l 640 56 z m 413 181 l 336 43 l 268 125 l 258 136 z m 781 64 l 669 81 l 671 101 l 678 165 z m 925 92 l 868 79 l 793 64 l 860 140 z m 253 135 l 188 10 l 185 13 l 94 100 z m 258 47 l 257 132 l 335 40 l 260 4 z m 190 8 l 254 131 l 256 40 l 256 4 z m 32 40 l 90 99 l 93 96 l 182 10 z m 792 60 l 924 88 l 854 10 z m 858 8 l 868 19 l 926 85 l 924 13 z m 964 13 l 926 13 l 926 24 l 931 83 z m 669 4 l 669 78 l 781 60 z m 667 8 l 642 51 l 664 74 l 667 75 z m 676 4 l 713 22 l 788 58 l 808 42 l 850 8 z m 169 8 l 36 13 l 32 38 l 86 26 z m 336 36 l 336 13 l 267 4 l 282 11 z "},"y":{"ha":1014,"x_min":0,"x_max":0,"o":"m 850 950 l 688 944 b 686 944 688 944 686 946 l 599 768 l 597 768 l 596 767 l 540 614 l 515 600 l 428 750 l 428 751 b 426 754 428 753 426 754 l 390 799 l 339 907 l 315 935 l 314 936 l 200 940 l 96 944 b 94 944 96 944 94 946 b 93 944 94 944 93 944 l 29 936 l 28 936 b 28 935 28 935 28 935 l 28 933 l 75 803 b 75 800 74 801 74 801 l 176 697 b 178 694 176 696 178 696 l 179 693 l 275 560 l 331 407 l 332 406 l 382 367 l 364 297 b 364 296 364 296 364 296 l 364 294 l 372 82 l 350 17 b 350 15 350 15 350 15 l 350 14 l 425 -4 l 426 -4 l 506 6 l 606 -4 b 607 -4 607 -4 607 -4 l 608 -4 l 664 6 b 665 7 665 6 665 7 l 646 165 l 651 385 l 693 425 l 731 524 l 731 525 l 917 789 l 986 928 l 986 929 b 986 931 986 929 986 931 z m 976 929 l 772 875 l 850 946 z m 843 946 l 765 874 l 690 942 z m 99 942 l 197 938 l 219 842 l 233 782 z m 94 942 l 226 786 l 35 933 z m 601 771 l 688 940 l 763 872 z m 204 938 l 308 933 l 275 907 l 258 894 z m 210 896 l 201 935 l 238 906 l 256 892 l 236 786 z m 314 932 l 333 908 l 268 894 l 264 894 z m 33 929 l 229 779 l 78 803 z m 982 926 l 915 792 l 771 872 z m 336 904 l 385 804 l 263 890 z m 258 889 l 383 800 l 239 778 z m 785 772 l 604 768 l 764 869 z m 768 869 l 908 790 l 788 772 l 781 804 z m 253 724 l 89 797 l 236 774 z m 354 729 l 244 775 l 385 797 z m 83 796 l 251 721 l 179 699 z m 389 796 l 421 753 l 389 740 l 357 729 z m 906 786 l 733 674 l 749 700 l 788 769 z m 906 782 l 732 593 l 731 649 l 731 667 z m 240 772 l 344 728 l 257 722 z m 900 771 l 731 529 l 732 588 z m 603 765 l 783 769 l 774 753 l 728 671 z m 597 651 l 600 763 l 726 668 l 594 542 z m 544 613 l 596 757 l 593 621 l 592 543 z m 411 746 l 422 750 l 378 581 l 356 724 z m 425 586 l 428 746 l 513 599 l 469 517 l 422 426 z m 421 568 l 419 431 l 379 571 l 424 735 z m 258 719 l 353 724 l 357 694 l 374 578 z m 182 696 l 206 703 l 254 718 l 369 578 z m 278 563 l 185 690 l 372 572 z m 724 661 l 692 574 l 676 535 l 599 540 z m 726 657 l 729 590 l 682 540 z m 540 611 l 585 546 l 543 578 l 517 599 z m 517 594 l 590 538 l 543 472 l 529 454 z m 513 592 l 524 479 l 526 451 l 463 432 l 425 422 z m 717 538 l 692 436 l 679 533 l 728 583 z m 726 529 l 726 525 l 700 454 l 708 492 l 729 571 z m 332 413 l 279 560 l 375 569 z m 335 408 l 375 557 l 382 371 z m 383 418 l 379 556 l 418 421 l 385 374 z m 594 536 l 671 532 l 533 454 z m 682 483 l 689 428 l 535 450 l 676 531 z m 647 383 l 643 174 l 532 446 z m 386 368 l 524 446 l 458 281 z m 688 425 l 649 386 l 540 446 l 642 432 z m 449 425 l 513 443 l 390 375 l 422 418 z m 558 243 l 461 278 l 488 343 l 528 442 z m 639 172 l 613 196 l 563 240 l 532 435 z m 367 297 l 385 364 l 439 299 l 453 281 l 389 293 z m 457 275 l 490 101 l 368 293 z m 368 288 l 436 181 l 493 92 l 394 74 z m 550 71 l 461 274 l 558 238 l 557 211 z m 508 158 l 547 67 l 497 92 l 463 261 z m 368 256 l 390 75 l 376 82 z m 617 32 l 564 235 l 643 164 z m 582 149 l 614 29 l 553 64 l 561 226 z m 644 154 l 661 10 l 618 26 l 625 58 z m 497 63 l 501 10 l 397 71 l 469 85 l 494 89 z m 506 13 l 497 88 l 547 63 z m 356 25 l 375 79 l 383 75 l 390 71 z m 422 0 l 354 17 l 393 68 l 407 33 z m 426 -1 l 396 68 l 499 8 z m 601 0 l 508 8 l 538 43 l 551 60 z m 560 56 l 614 25 l 607 0 z m 657 7 l 610 0 l 618 24 l 633 17 z "},"z":{"ha":967,"x_min":0,"x_max":0,"o":"m 911 88 l 903 225 b 901 226 903 226 903 226 l 860 256 l 756 242 l 553 256 l 431 240 l 515 299 l 515 300 l 563 388 b 563 389 563 389 563 389 l 640 485 l 753 560 l 753 561 l 818 700 l 897 754 b 897 756 897 756 897 756 l 897 757 l 893 929 b 893 931 893 929 893 931 l 892 931 l 758 944 l 757 944 b 756 944 756 946 756 944 l 592 935 l 368 938 l 138 950 b 136 950 138 950 138 950 l 93 940 l 92 939 l 75 860 b 75 858 75 860 75 858 l 90 711 l 92 710 l 228 700 b 229 700 228 700 229 700 l 231 701 l 278 724 l 419 690 b 421 690 421 690 421 690 l 422 690 l 543 719 l 496 685 b 494 683 494 685 494 683 b 493 682 494 683 493 683 l 404 597 l 401 596 b 400 594 401 596 401 594 l 400 593 l 251 442 l 251 440 l 149 278 l 107 250 l 56 194 b 56 193 56 194 56 193 l 60 25 l 69 1 l 71 0 l 182 10 l 253 0 l 254 0 l 546 14 l 625 0 l 626 0 l 774 10 l 775 10 l 893 24 b 894 25 894 24 894 25 l 911 85 b 911 86 911 85 911 85 z m 151 946 l 353 935 l 254 915 z m 250 913 l 222 889 l 197 868 l 140 946 z m 193 868 l 81 861 l 136 946 z m 81 868 l 96 938 l 132 946 l 106 906 z m 751 942 l 743 936 l 694 901 l 601 932 z m 760 942 l 888 928 l 815 853 z m 726 921 l 754 940 l 794 783 l 813 713 l 785 757 l 699 900 z m 372 935 l 568 932 l 407 913 z m 401 913 l 269 915 l 367 935 z m 793 800 l 761 932 l 814 850 l 815 715 z m 626 921 l 688 900 l 563 881 l 592 932 z m 588 931 l 572 903 l 558 879 l 418 910 z m 889 925 l 894 761 l 818 850 z m 326 865 l 201 868 l 236 897 l 254 911 z m 263 911 l 401 910 l 335 867 l 300 888 z m 451 753 l 336 864 l 371 886 l 406 908 l 435 808 z m 557 876 l 544 728 l 411 908 z m 456 749 l 411 901 l 543 725 z m 557 839 l 561 876 l 690 897 l 549 728 z m 775 767 l 813 703 l 707 706 l 706 738 l 697 893 z m 694 892 l 701 732 l 703 706 l 610 663 z m 549 722 l 692 892 l 607 663 z m 200 864 l 331 863 l 276 731 z m 226 707 l 81 858 l 196 864 z m 450 749 l 281 728 l 335 861 z m 225 704 l 94 714 l 79 856 z m 275 726 l 231 704 l 201 856 l 243 783 z m 893 757 l 818 704 l 818 761 l 817 846 z m 540 722 l 425 694 l 436 714 l 454 746 z m 288 725 l 451 746 l 419 693 z m 500 683 l 547 719 l 601 663 l 563 671 z m 707 703 l 810 700 l 699 649 l 706 689 z m 697 665 l 694 647 l 614 660 l 703 701 z m 699 644 l 814 697 l 751 564 l 725 604 z m 410 599 l 496 681 l 599 658 z m 747 563 l 450 485 l 607 657 z m 731 589 l 744 568 l 617 656 l 681 646 l 694 643 z m 404 593 l 600 656 l 444 485 z m 258 443 l 401 590 l 413 561 l 442 483 z m 743 557 l 640 489 l 460 483 z m 638 485 l 560 392 l 449 481 z m 369 290 l 444 479 l 557 389 z m 382 329 l 367 290 l 354 313 l 303 403 l 440 478 z m 432 478 l 299 404 l 257 439 z m 157 285 l 253 438 l 275 421 l 297 403 z m 258 340 l 299 397 l 303 326 l 304 301 l 197 253 z m 307 317 l 301 394 l 343 325 l 363 289 l 308 301 z m 172 294 l 289 392 l 192 251 l 153 278 z m 557 385 l 513 301 l 376 289 z m 360 286 l 289 260 l 296 276 l 306 299 z m 388 272 l 371 285 l 507 299 l 428 242 z m 203 251 l 303 296 l 296 281 l 285 258 z m 281 65 l 288 254 l 343 275 l 364 283 z m 392 265 l 425 239 l 401 210 l 285 65 l 368 283 z m 114 250 l 150 275 l 186 250 z m 194 247 l 283 254 l 282 199 l 276 61 z m 731 240 l 525 228 l 553 251 z m 856 251 l 854 249 l 778 94 l 763 210 l 758 239 z m 440 239 l 547 251 l 542 246 l 519 228 z m 861 250 l 899 225 l 907 101 l 872 213 z m 857 247 l 857 250 l 907 88 l 779 90 z m 64 197 l 110 247 l 183 247 z m 61 193 l 190 246 l 171 163 l 158 108 z m 160 104 l 179 189 l 192 242 l 221 125 l 249 8 z m 524 224 l 753 238 l 678 140 l 640 92 z m 431 238 l 518 224 l 521 199 l 543 28 z m 700 164 l 756 235 l 775 90 l 644 92 z m 542 21 l 417 78 l 419 108 l 429 233 l 447 199 z m 414 78 l 283 57 l 425 232 z m 239 63 l 200 226 l 276 54 l 253 7 z m 532 142 l 522 221 l 638 90 l 549 21 z m 64 29 l 58 189 l 156 104 z m 157 100 l 179 14 l 65 26 z m 249 4 l 183 13 l 161 99 z m 714 42 l 554 19 l 640 88 l 665 72 z m 738 57 l 719 43 l 689 63 l 647 88 l 772 86 z m 897 85 l 726 43 l 740 56 l 778 86 z m 731 42 l 908 83 l 892 28 z m 264 4 l 415 75 l 540 17 z m 257 6 l 279 53 l 401 72 z m 760 17 l 768 13 l 636 4 l 718 39 z m 878 25 l 775 13 l 729 38 z m 557 15 l 706 38 l 625 4 z m 165 11 l 72 4 l 64 24 z "}}}
